<?xml version="1.0" encoding="utf-8"?>
<svg id="master-artboard" viewBox="0 0 700 700" version="1.1" xmlns="http://www.w3.org/2000/svg" x="0px" y="0px" style="enable-background:new 0 0 1400 980;" width="700px" height="700px"><rect id="ee-background" x="0" y="0" width="700" height="700" style="fill: white; fill-opacity: 0; pointer-events: none;"/>

<path class="st1" d="M829,540.7c-0.2-0.5-0.4-1-0.6-1.5c-0.2-0.5-0.4-1.1-0.5-1.6c-1-3.4-1.9-7.5-2.7-11.7&#10;&#9;&#9;&#9;c-2.8-15.7-3.8-34.5-3.8-34.5c1.2-21.5-3.1-38.5-10.6-51.9c-0.5-0.8-0.9-1.7-1.4-2.5c-2.5-4-5.2-7.7-8.2-11.1&#10;&#9;&#9;&#9;c-4.8-5.4-10.1-10-15.8-13.9c-1.4-1-2.9-1.9-4.3-2.8c-7.2-4.5-14.9-7.9-22.3-10.5c-4.5-1.6-8.8-2.9-13-4c-0.7-0.2-1.4-0.3-2.1-0.5&#10;&#9;&#9;&#9;c-1.4-0.3-2.7-0.6-4.1-0.9c-6.6-1.4-12.6-2.2-17.3-2.7c-1.4-0.1-2.7-0.3-3.9-0.4c-1.4-0.1-2.6-0.2-3.6-0.2c-1,0.1-2.2,0.1-3.6,0.2&#10;&#9;&#9;&#9;c-25.1,2-107.7,15-103,101.2c0,0-2.1,39.7-8.7,52c0,0-9.8,20.7,13.9,38.2c0,0,33,33.1,78.9,41.8c0,0,0.1,0,0.1,0&#10;&#9;&#9;&#9;c1.2,0.2,2.3,0.4,3.5,0.6c0,0,0,0,0.1,0c1.2,0.2,2.3,0.4,3.5,0.5c0.1,0,0.2,0,0.3,0c1,0.1,2.1,0.2,3.1,0.3c0.2,0,0.4,0,0.6,0.1&#10;&#9;&#9;&#9;c1.1,0.1,2.3,0.2,3.4,0.3c0.1,0,0.3,0,0.4,0c1,0.1,2,0.1,3,0.1c0.3,0,0.6,0,0.9,0c1.1,0,2.3,0,3.4,0l0,0h0l0,0&#10;&#9;&#9;&#9;c3.6,0,7.1-0.1,10.6-0.4c6.9-0.6,13.6-1.8,20-3.5c1.6-0.4,3.2-0.9,4.7-1.3c1.6-0.5,3.1-1,4.6-1.5c1.5-0.5,3-1,4.5-1.6&#10;&#9;&#9;&#9;c3.7-1.4,7.3-2.9,10.7-4.5c2.7-1.3,5.4-2.6,7.9-3.9c0.6-0.3,1.3-0.7,1.9-1c1.2-0.7,2.5-1.4,3.7-2c8.9-5.1,16.4-10.4,21.9-14.8&#10;&#9;&#9;&#9;c7-5.5,10.9-9.4,10.9-9.4c3-2.2,5.4-4.4,7.4-6.6c1.5-1.7,2.8-3.4,3.8-5c8.7-13.8,2.7-26.5,2.7-26.5&#10;&#9;&#9;&#9;C829.7,542.6,829.3,541.7,829,540.7z" style="opacity: 0; fill: rgb(255, 255, 255);" transform="matrix(1.4177435636520388, 0, 0, 1.4046043157577512, -642.8414804178273, -357.07690769574765)"/><path class="st2" d="M828.3,540.1c-0.2-0.5-0.4-1-0.6-1.5c-0.2-0.5-0.4-1.1-0.5-1.6c-1-3.4-1.9-7.5-2.7-11.7&#10;&#9;&#9;&#9;c-2.8-15.7-3.8-34.5-3.8-34.5c1.2-21.5-3.1-38.5-10.6-51.9c-0.5-0.8-0.9-1.7-1.4-2.5c-2.5-4-5.2-7.7-8.2-11.1&#10;&#9;&#9;&#9;c-4.8-5.4-10.1-10-15.8-13.9c-1.4-1-2.9-1.9-4.3-2.8c-7.2-4.5-14.9-7.9-22.3-10.5c-4.5-1.6-8.8-2.9-13-4c-0.7-0.2-1.4-0.3-2.1-0.5&#10;&#9;&#9;&#9;c-1.4-0.3-2.7-0.6-4.1-0.9c-6.6-1.4-12.6-2.2-17.3-2.7c-1.4-0.1-2.7-0.3-3.9-0.4c-1.4-0.1-2.6-0.2-3.6-0.2c-1,0.1-2.2,0.1-3.6,0.2&#10;&#9;&#9;&#9;c-25.1,2-107.7,15-103,101.2c0,0-2.1,39.7-8.7,52c0,0-9.8,20.7,13.9,38.2c0,0,33,33.1,78.9,41.8c0,0,0.1,0,0.1,0&#10;&#9;&#9;&#9;c1.2,0.2,2.3,0.4,3.5,0.6c0,0,0,0,0.1,0c1.2,0.2,2.3,0.4,3.5,0.5c0.1,0,0.2,0,0.3,0c1,0.1,2.1,0.2,3.1,0.3c0.2,0,0.4,0,0.6,0.1&#10;&#9;&#9;&#9;c1.1,0.1,2.3,0.2,3.4,0.3c0.1,0,0.3,0,0.4,0c1,0.1,2,0.1,3,0.1c0.3,0,0.6,0,0.9,0c1.1,0,2.3,0,3.4,0l0,0h0l0,0&#10;&#9;&#9;&#9;c3.6,0,7.1-0.1,10.6-0.4c6.9-0.6,13.6-1.8,20-3.5c1.6-0.4,3.2-0.9,4.7-1.3c1.6-0.5,3.1-1,4.6-1.5c1.5-0.5,3-1,4.5-1.6&#10;&#9;&#9;&#9;c3.7-1.4,7.3-2.9,10.7-4.5c2.7-1.3,5.4-2.6,7.9-3.9c0.6-0.3,1.3-0.7,1.9-1c1.2-0.7,2.5-1.4,3.7-2c8.9-5.1,16.4-10.4,21.9-14.8&#10;&#9;&#9;&#9;c7-5.5,10.9-9.4,10.9-9.4c3-2.2,5.4-4.4,7.4-6.6c1.5-1.7,2.8-3.4,3.8-5c8.7-13.8,2.7-26.5,2.7-26.5&#10;&#9;&#9;&#9;C829.1,541.9,828.7,541,828.3,540.1z" style="opacity: 0.032258; fill: rgb(247, 247, 247);" transform="matrix(1.4177435636520388, 0, 0, 1.4046043157577512, -642.8414804178273, -357.07690769574765)"/><path class="st3" d="M827.7,539.4c-0.2-0.5-0.4-1-0.6-1.5c-0.2-0.5-0.4-1.1-0.5-1.6c-1-3.4-1.9-7.5-2.7-11.7&#10;&#9;&#9;&#9;c-2.8-15.7-3.8-34.5-3.8-34.5c1.2-21.5-3.1-38.5-10.6-51.9c-0.5-0.8-0.9-1.7-1.4-2.5c-2.5-4-5.2-7.7-8.2-11.1&#10;&#9;&#9;&#9;c-4.8-5.4-10.1-10-15.8-13.9c-1.4-1-2.9-1.9-4.3-2.8c-7.2-4.5-14.9-7.9-22.3-10.5c-4.5-1.6-8.8-2.9-13-4c-0.7-0.2-1.4-0.3-2.1-0.5&#10;&#9;&#9;&#9;c-1.4-0.3-2.7-0.6-4.1-0.9c-6.6-1.4-12.6-2.2-17.3-2.7c-1.4-0.1-2.7-0.3-3.9-0.4c-1.4-0.1-2.6-0.2-3.6-0.2c-1,0.1-2.2,0.1-3.6,0.2&#10;&#9;&#9;&#9;c-25.1,2-107.7,15-103,101.2c0,0-2.1,39.7-8.7,52c0,0-9.8,20.7,13.9,38.2c0,0,33,33.1,78.9,41.8c0,0,0.1,0,0.1,0&#10;&#9;&#9;&#9;c1.2,0.2,2.3,0.4,3.5,0.6c0,0,0,0,0.1,0c1.2,0.2,2.3,0.4,3.5,0.5c0.1,0,0.2,0,0.3,0c1,0.1,2.1,0.2,3.1,0.3c0.2,0,0.4,0,0.6,0.1&#10;&#9;&#9;&#9;c1.1,0.1,2.3,0.2,3.4,0.3c0.1,0,0.3,0,0.4,0c1,0.1,2,0.1,3,0.1c0.3,0,0.6,0,0.9,0c1.1,0,2.3,0,3.4,0l0,0h0l0,0&#10;&#9;&#9;&#9;c3.6,0,7.1-0.1,10.6-0.4c6.9-0.6,13.6-1.8,20-3.5c1.6-0.4,3.2-0.9,4.7-1.3s3.1-1,4.6-1.5c1.5-0.5,3-1,4.5-1.6&#10;&#9;&#9;&#9;c3.7-1.4,7.3-2.9,10.7-4.5c2.7-1.3,5.4-2.6,7.9-3.9c0.6-0.3,1.3-0.7,1.9-1c1.2-0.7,2.5-1.4,3.7-2c8.9-5.1,16.4-10.4,21.9-14.8&#10;&#9;&#9;&#9;c7-5.5,10.9-9.4,10.9-9.4c3-2.2,5.4-4.4,7.4-6.6c1.5-1.7,2.8-3.4,3.8-5c8.7-13.8,2.7-26.5,2.7-26.5&#10;&#9;&#9;&#9;C828.5,541.2,828.1,540.3,827.7,539.4z" style="opacity: 0.064516; fill: rgb(239, 239, 239);" transform="matrix(1.4177435636520388, 0, 0, 1.4046043157577512, -642.8414804178273, -357.07690769574765)"/><path class="st4" d="M827.1,538.7c-0.2-0.5-0.4-1-0.6-1.5c-0.2-0.5-0.4-1.1-0.5-1.6c-1-3.4-1.9-7.5-2.7-11.7&#10;&#9;&#9;&#9;c-2.8-15.7-3.8-34.5-3.8-34.5c1.2-21.5-3.1-38.5-10.6-51.9c-0.5-0.8-0.9-1.7-1.4-2.5c-2.5-4-5.2-7.7-8.2-11.1&#10;&#9;&#9;&#9;c-4.8-5.4-10.1-10-15.8-13.9c-1.4-1-2.9-1.9-4.3-2.8c-7.2-4.5-14.9-7.9-22.3-10.5c-4.5-1.6-8.8-2.9-13-4c-0.7-0.2-1.4-0.3-2.1-0.5&#10;&#9;&#9;&#9;c-1.4-0.3-2.7-0.6-4.1-0.9c-6.6-1.4-12.6-2.2-17.3-2.7c-1.4-0.1-2.7-0.3-3.9-0.4c-1.4-0.1-2.6-0.2-3.6-0.2c-1,0.1-2.2,0.1-3.6,0.2&#10;&#9;&#9;&#9;c-25.1,2-107.7,15-103,101.2c0,0-2.1,39.7-8.7,52c0,0-9.8,20.7,13.9,38.2c0,0,33,33.1,78.9,41.8c0,0,0.1,0,0.1,0&#10;&#9;&#9;&#9;c1.2,0.2,2.3,0.4,3.5,0.6c0,0,0,0,0.1,0c1.2,0.2,2.3,0.4,3.5,0.5c0.1,0,0.2,0,0.3,0c1,0.1,2.1,0.2,3.1,0.3c0.2,0,0.4,0,0.6,0.1&#10;&#9;&#9;&#9;c1.1,0.1,2.3,0.2,3.4,0.3c0.1,0,0.3,0,0.4,0c1,0.1,2,0.1,3,0.1c0.3,0,0.6,0,0.9,0c1.1,0,2.3,0,3.4,0l0,0h0l0,0&#10;&#9;&#9;&#9;c3.6,0,7.1-0.1,10.6-0.4c6.9-0.6,13.6-1.8,20-3.5c1.6-0.4,3.2-0.9,4.7-1.3c1.6-0.5,3.1-1,4.6-1.5c1.5-0.5,3-1,4.5-1.6&#10;&#9;&#9;&#9;c3.7-1.4,7.3-2.9,10.7-4.5c2.7-1.3,5.4-2.6,7.9-3.9c0.6-0.3,1.3-0.7,1.9-1c1.2-0.7,2.5-1.4,3.7-2c8.9-5.1,16.4-10.4,21.9-14.8&#10;&#9;&#9;&#9;c7-5.5,10.9-9.4,10.9-9.4c3-2.2,5.4-4.4,7.4-6.6c1.5-1.7,2.8-3.4,3.8-5c8.7-13.8,2.7-26.5,2.7-26.5&#10;&#9;&#9;&#9;C827.8,540.5,827.4,539.7,827.1,538.7z" style="opacity: 0.096774; fill: rgb(231, 231, 231);" transform="matrix(1.4177435636520388, 0, 0, 1.4046043157577512, -642.8414804178273, -357.07690769574765)"/><path class="st5" d="M826.4,538c-0.2-0.5-0.4-1-0.6-1.5c-0.2-0.5-0.4-1.1-0.5-1.6c-1-3.4-1.9-7.5-2.7-11.7&#10;&#9;&#9;&#9;c-2.8-15.7-3.8-34.5-3.8-34.5c1.2-21.5-3.1-38.5-10.6-51.9c-0.5-0.8-0.9-1.7-1.4-2.5c-2.5-4-5.2-7.7-8.2-11.1&#10;&#9;&#9;&#9;c-4.8-5.4-10.1-10-15.8-13.9c-1.4-1-2.9-1.9-4.3-2.8c-7.2-4.5-14.9-7.9-22.3-10.5c-4.5-1.6-8.8-2.9-13-4c-0.7-0.2-1.4-0.3-2.1-0.5&#10;&#9;&#9;&#9;c-1.4-0.3-2.7-0.6-4.1-0.9c-6.6-1.4-12.6-2.2-17.3-2.7c-1.4-0.1-2.7-0.3-3.9-0.4c-1.4-0.1-2.6-0.2-3.6-0.2c-1,0.1-2.2,0.1-3.6,0.2&#10;&#9;&#9;&#9;c-25.1,2-107.7,15-103,101.2c0,0-2.1,39.7-8.7,52c0,0-9.8,20.7,13.9,38.2c0,0,33,33.1,78.9,41.8c0,0,0.1,0,0.1,0&#10;&#9;&#9;&#9;c1.2,0.2,2.3,0.4,3.5,0.6c0,0,0,0,0.1,0c1.2,0.2,2.3,0.4,3.5,0.5c0.1,0,0.2,0,0.3,0c1,0.1,2.1,0.2,3.1,0.3c0.2,0,0.4,0,0.6,0.1&#10;&#9;&#9;&#9;c1.1,0.1,2.3,0.2,3.4,0.3c0.1,0,0.3,0,0.4,0c1,0.1,2,0.1,3,0.1c0.3,0,0.6,0,0.9,0c1.1,0,2.3,0,3.4,0l0,0h0l0,0&#10;&#9;&#9;&#9;c3.6,0,7.1-0.1,10.6-0.4c6.9-0.6,13.6-1.8,20-3.5c1.6-0.4,3.2-0.9,4.7-1.3s3.1-1,4.6-1.5c1.5-0.5,3-1,4.5-1.6&#10;&#9;&#9;&#9;c3.7-1.4,7.3-2.9,10.7-4.5c2.7-1.3,5.4-2.6,7.9-3.9c0.6-0.3,1.3-0.7,1.9-1c1.2-0.7,2.5-1.4,3.7-2c8.9-5.1,16.4-10.4,21.9-14.8&#10;&#9;&#9;&#9;c7-5.5,10.9-9.4,10.9-9.4c3-2.2,5.4-4.4,7.4-6.6c1.5-1.7,2.8-3.4,3.8-5c8.7-13.8,2.7-26.5,2.7-26.5&#10;&#9;&#9;&#9;C827.2,539.9,826.8,539,826.4,538z" style="opacity: 0.129; fill: rgb(223, 223, 223);" transform="matrix(1.4177435636520388, 0, 0, 1.4046043157577512, -642.8414804178273, -357.07690769574765)"/><path class="st6" d="M825.8,537.3c-0.2-0.5-0.4-1-0.6-1.5c-0.2-0.5-0.4-1.1-0.5-1.6c-1-3.4-1.9-7.5-2.7-11.7&#10;&#9;&#9;&#9;c-2.8-15.7-3.8-34.5-3.8-34.5c1.2-21.5-3.1-38.5-10.6-51.9c-0.5-0.8-0.9-1.7-1.4-2.5c-2.5-4-5.2-7.7-8.2-11.1&#10;&#9;&#9;&#9;c-4.8-5.4-10.1-10-15.8-13.9c-1.4-1-2.9-1.9-4.3-2.8c-7.2-4.5-14.9-7.9-22.3-10.5c-4.5-1.6-8.8-2.9-13-4c-0.7-0.2-1.4-0.3-2.1-0.5&#10;&#9;&#9;&#9;c-1.4-0.3-2.7-0.6-4.1-0.9c-6.6-1.4-12.6-2.2-17.3-2.7c-1.4-0.1-2.7-0.3-3.9-0.4c-1.4-0.1-2.6-0.2-3.6-0.2c-1,0.1-2.2,0.1-3.6,0.2&#10;&#9;&#9;&#9;c-25.1,2-107.7,15-103,101.2c0,0-2.1,39.7-8.7,52c0,0-9.8,20.7,13.9,38.2c0,0,33,33.1,78.9,41.8c0,0,0.1,0,0.1,0&#10;&#9;&#9;&#9;c1.2,0.2,2.3,0.4,3.5,0.6c0,0,0,0,0.1,0c1.2,0.2,2.3,0.4,3.5,0.5c0.1,0,0.2,0,0.3,0c1,0.1,2.1,0.2,3.1,0.3c0.2,0,0.4,0,0.6,0.1&#10;&#9;&#9;&#9;c1.1,0.1,2.3,0.2,3.4,0.3c0.1,0,0.3,0,0.4,0c1,0.1,2,0.1,3,0.1c0.3,0,0.6,0,0.9,0c1.1,0,2.3,0,3.4,0l0,0h0l0,0&#10;&#9;&#9;&#9;c3.6,0,7.1-0.1,10.6-0.4c6.9-0.6,13.6-1.8,20-3.5c1.6-0.4,3.2-0.9,4.7-1.3c1.6-0.5,3.1-1,4.6-1.5c1.5-0.5,3-1,4.5-1.6&#10;&#9;&#9;&#9;c3.7-1.4,7.3-2.9,10.7-4.5c2.7-1.3,5.4-2.6,7.9-3.9c0.6-0.3,1.3-0.7,1.9-1c1.2-0.7,2.5-1.4,3.7-2c8.9-5.1,16.4-10.4,21.9-14.8&#10;&#9;&#9;&#9;c7-5.5,10.9-9.4,10.9-9.4c3-2.2,5.4-4.4,7.4-6.6c1.5-1.7,2.8-3.4,3.8-5C833,552.6,827,540,827,540&#10;&#9;&#9;&#9;C826.6,539.2,826.2,538.3,825.8,537.3z" style="opacity: 0.1613; fill: rgb(215, 215, 215);" transform="matrix(1.4177435636520388, 0, 0, 1.4046043157577512, -642.8414804178273, -357.07690769574765)"/><path class="st7" d="M825.2,536.7c-0.2-0.5-0.4-1-0.6-1.5c-0.2-0.5-0.4-1.1-0.5-1.6c-1-3.4-1.9-7.5-2.7-11.7&#10;&#9;&#9;&#9;c-2.8-15.7-3.8-34.5-3.8-34.5c1.2-21.5-3.1-38.5-10.6-51.9c-0.5-0.8-0.9-1.7-1.4-2.5c-2.5-4-5.2-7.7-8.2-11.1&#10;&#9;&#9;&#9;c-4.8-5.4-10.1-10-15.8-13.9c-1.4-1-2.9-1.9-4.3-2.8c-7.2-4.5-14.9-7.9-22.3-10.5c-4.5-1.6-8.8-2.9-13-4c-0.7-0.2-1.4-0.3-2.1-0.5&#10;&#9;&#9;&#9;c-1.4-0.3-2.7-0.6-4.1-0.9c-6.6-1.4-12.6-2.2-17.3-2.7c-1.4-0.1-2.7-0.3-3.9-0.4c-1.4-0.1-2.6-0.2-3.6-0.2c-1,0.1-2.2,0.1-3.6,0.2&#10;&#9;&#9;&#9;c-25.1,2-107.7,15-103,101.2c0,0-2.1,39.7-8.7,52c0,0-9.8,20.7,13.9,38.2c0,0,33,33.1,78.9,41.8c0,0,0.1,0,0.1,0&#10;&#9;&#9;&#9;c1.2,0.2,2.3,0.4,3.5,0.6c0,0,0,0,0.1,0c1.2,0.2,2.3,0.4,3.5,0.5c0.1,0,0.2,0,0.3,0c1,0.1,2.1,0.2,3.1,0.3c0.2,0,0.4,0,0.6,0.1&#10;&#9;&#9;&#9;c1.1,0.1,2.3,0.2,3.4,0.3c0.1,0,0.3,0,0.4,0c1,0.1,2,0.1,3,0.1c0.3,0,0.6,0,0.9,0c1.1,0,2.3,0,3.4,0l0,0h0l0,0&#10;&#9;&#9;&#9;c3.6,0,7.1-0.1,10.6-0.4c6.9-0.6,13.6-1.8,20-3.5c1.6-0.4,3.2-0.9,4.7-1.3c1.6-0.5,3.1-1,4.6-1.5c1.5-0.5,3-1,4.5-1.6&#10;&#9;&#9;&#9;c3.7-1.4,7.3-2.9,10.7-4.5c2.7-1.3,5.4-2.6,7.9-3.9c0.6-0.3,1.3-0.7,1.9-1c1.2-0.7,2.5-1.4,3.7-2c8.9-5.1,16.4-10.4,21.9-14.8&#10;&#9;&#9;&#9;c7-5.5,10.9-9.4,10.9-9.4c3-2.2,5.4-4.4,7.4-6.6c1.5-1.7,2.8-3.4,3.8-5c8.7-13.8,2.7-26.5,2.7-26.5&#10;&#9;&#9;&#9;C826,538.5,825.6,537.6,825.2,536.7z" style="opacity: 0.1935; fill: rgb(207, 207, 207);" transform="matrix(1.4177435636520388, 0, 0, 1.4046043157577512, -642.8414804178273, -357.07690769574765)"/><path class="st8" d="M824.5,536c-0.2-0.5-0.4-1-0.6-1.5c-0.2-0.5-0.4-1.1-0.5-1.6c-1-3.4-1.9-7.5-2.7-11.7&#10;&#9;&#9;&#9;c-2.8-15.7-3.8-34.5-3.8-34.5c1.2-21.5-3.1-38.5-10.6-51.9c-0.5-0.8-0.9-1.7-1.4-2.5c-2.5-4-5.2-7.7-8.2-11.1&#10;&#9;&#9;&#9;c-4.8-5.4-10.1-10-15.8-13.9c-1.4-1-2.9-1.9-4.3-2.8c-7.2-4.5-14.9-7.9-22.3-10.5c-4.5-1.6-8.8-2.9-13-4c-0.7-0.2-1.4-0.3-2.1-0.5&#10;&#9;&#9;&#9;c-1.4-0.3-2.7-0.6-4.1-0.9c-6.6-1.4-12.6-2.2-17.3-2.7c-1.4-0.1-2.7-0.3-3.9-0.4c-1.4-0.1-2.6-0.2-3.6-0.2c-1,0.1-2.2,0.1-3.6,0.2&#10;&#9;&#9;&#9;c-25.1,2-107.7,15-103,101.2c0,0-2.1,39.7-8.7,52c0,0-9.8,20.7,13.9,38.2c0,0,33,33.1,78.9,41.8c0,0,0.1,0,0.1,0&#10;&#9;&#9;&#9;c1.2,0.2,2.3,0.4,3.5,0.6c0,0,0,0,0.1,0c1.2,0.2,2.3,0.4,3.5,0.5c0.1,0,0.2,0,0.3,0c1,0.1,2.1,0.2,3.1,0.3c0.2,0,0.4,0,0.6,0.1&#10;&#9;&#9;&#9;c1.1,0.1,2.3,0.2,3.4,0.3c0.1,0,0.3,0,0.4,0c1,0.1,2,0.1,3,0.1c0.3,0,0.6,0,0.9,0c1.1,0,2.3,0,3.4,0l0,0h0l0,0&#10;&#9;&#9;&#9;c3.6,0,7.1-0.1,10.6-0.4c6.9-0.6,13.6-1.8,20-3.5c1.6-0.4,3.2-0.9,4.7-1.3c1.6-0.5,3.1-1,4.6-1.5c1.5-0.5,3-1,4.5-1.6&#10;&#9;&#9;&#9;c3.7-1.4,7.3-2.9,10.7-4.5c2.7-1.3,5.4-2.6,7.9-3.9c0.6-0.3,1.3-0.7,1.9-1c1.2-0.7,2.5-1.4,3.7-2c8.9-5.1,16.4-10.4,21.9-14.8&#10;&#9;&#9;&#9;c7-5.5,10.9-9.4,10.9-9.4c3-2.2,5.4-4.4,7.4-6.6c1.5-1.7,2.8-3.4,3.8-5c8.7-13.8,2.7-26.5,2.7-26.5&#10;&#9;&#9;&#9;C825.3,537.8,824.9,537,824.5,536z" style="opacity: 0.2258; fill: rgb(199, 199, 199);" transform="matrix(1.4177435636520388, 0, 0, 1.4046043157577512, -642.8414804178273, -357.07690769574765)"/><path class="st9" d="M823.9,535.3c-0.2-0.5-0.4-1-0.6-1.5c-0.2-0.5-0.4-1.1-0.5-1.6c-1-3.4-1.9-7.5-2.7-11.7&#10;&#9;&#9;&#9;c-2.8-15.7-3.8-34.5-3.8-34.5c1.2-21.5-3.1-38.5-10.6-51.9c-0.5-0.8-0.9-1.7-1.4-2.5c-2.5-4-5.2-7.7-8.2-11.1&#10;&#9;&#9;&#9;c-4.8-5.4-10.1-10-15.8-13.9c-1.4-1-2.9-1.9-4.3-2.8c-7.2-4.5-14.9-7.9-22.3-10.5c-4.5-1.6-8.8-2.9-13-4c-0.7-0.2-1.4-0.3-2.1-0.5&#10;&#9;&#9;&#9;c-1.4-0.3-2.7-0.6-4.1-0.9c-6.6-1.4-12.6-2.2-17.3-2.7c-1.4-0.1-2.7-0.3-3.9-0.4c-1.4-0.1-2.6-0.2-3.6-0.2c-1,0.1-2.2,0.1-3.6,0.2&#10;&#9;&#9;&#9;c-25.1,2-107.7,15-103,101.2c0,0-2.1,39.7-8.7,52c0,0-9.8,20.7,13.9,38.2c0,0,33,33.1,78.9,41.8c0,0,0.1,0,0.1,0&#10;&#9;&#9;&#9;c1.2,0.2,2.3,0.4,3.5,0.6c0,0,0,0,0.1,0c1.2,0.2,2.3,0.4,3.5,0.5c0.1,0,0.2,0,0.3,0c1,0.1,2.1,0.2,3.1,0.3c0.2,0,0.4,0,0.6,0.1&#10;&#9;&#9;&#9;c1.1,0.1,2.3,0.2,3.4,0.3c0.1,0,0.3,0,0.4,0c1,0.1,2,0.1,3,0.1c0.3,0,0.6,0,0.9,0c1.1,0,2.3,0,3.4,0l0,0h0l0,0&#10;&#9;&#9;&#9;c3.6,0,7.1-0.1,10.6-0.4c6.9-0.6,13.6-1.8,20-3.5c1.6-0.4,3.2-0.9,4.7-1.3c1.6-0.5,3.1-1,4.6-1.5c1.5-0.5,3-1,4.5-1.6&#10;&#9;&#9;&#9;c3.7-1.4,7.3-2.9,10.7-4.5c2.7-1.3,5.4-2.6,7.9-3.9c0.6-0.3,1.3-0.7,1.9-1c1.2-0.7,2.5-1.4,3.7-2c8.9-5.1,16.4-10.4,21.9-14.8&#10;&#9;&#9;&#9;c7-5.5,10.9-9.4,10.9-9.4c3-2.2,5.4-4.4,7.4-6.6c1.5-1.7,2.8-3.4,3.8-5c8.7-13.8,2.7-26.5,2.7-26.5&#10;&#9;&#9;&#9;C824.7,537.2,824.3,536.3,823.9,535.3z" style="opacity: 0.2581; fill: rgb(191, 191, 191);" transform="matrix(1.4177435636520388, 0, 0, 1.4046043157577512, -642.8414804178273, -357.07690769574765)"/><path class="st10" d="M823.3,534.6c-0.2-0.5-0.4-1-0.6-1.5c-0.2-0.5-0.4-1.1-0.5-1.6c-1-3.4-1.9-7.5-2.7-11.7&#10;&#9;&#9;&#9;c-2.8-15.7-3.8-34.5-3.8-34.5c1.2-21.5-3.1-38.5-10.6-51.9c-0.5-0.8-0.9-1.7-1.4-2.5c-2.5-4-5.2-7.7-8.2-11.1&#10;&#9;&#9;&#9;c-4.8-5.4-10.1-10-15.8-13.9c-1.4-1-2.9-1.9-4.3-2.8c-7.2-4.5-14.9-7.9-22.3-10.5c-4.5-1.6-8.8-2.9-13-4c-0.7-0.2-1.4-0.3-2.1-0.5&#10;&#9;&#9;&#9;c-1.4-0.3-2.7-0.6-4.1-0.9c-6.6-1.4-12.6-2.2-17.3-2.7c-1.4-0.1-2.7-0.3-3.9-0.4c-1.4-0.1-2.6-0.2-3.6-0.2c-1,0.1-2.2,0.1-3.6,0.2&#10;&#9;&#9;&#9;c-25.1,2-107.7,15-103,101.2c0,0-2.1,39.7-8.7,52c0,0-9.8,20.7,13.9,38.2c0,0,33,33.1,78.9,41.8c0,0,0.1,0,0.1,0&#10;&#9;&#9;&#9;c1.2,0.2,2.3,0.4,3.5,0.6c0,0,0,0,0.1,0c1.2,0.2,2.3,0.4,3.5,0.5c0.1,0,0.2,0,0.3,0c1,0.1,2.1,0.2,3.1,0.3c0.2,0,0.4,0,0.6,0.1&#10;&#9;&#9;&#9;c1.1,0.1,2.3,0.2,3.4,0.3c0.1,0,0.3,0,0.4,0c1,0.1,2,0.1,3,0.1c0.3,0,0.6,0,0.9,0c1.1,0,2.3,0,3.4,0l0,0h0l0,0&#10;&#9;&#9;&#9;c3.6,0,7.1-0.1,10.6-0.4c6.9-0.6,13.6-1.8,20-3.5c1.6-0.4,3.2-0.9,4.7-1.3c1.6-0.5,3.1-1,4.6-1.5c1.5-0.5,3-1,4.5-1.6&#10;&#9;&#9;&#9;c3.7-1.4,7.3-2.9,10.7-4.5c2.7-1.3,5.4-2.6,7.9-3.9c0.6-0.3,1.3-0.7,1.9-1c1.2-0.7,2.5-1.4,3.7-2c8.9-5.1,16.4-10.4,21.9-14.8&#10;&#9;&#9;&#9;c7-5.5,10.9-9.4,10.9-9.4c3-2.2,5.4-4.4,7.4-6.6c1.5-1.7,2.8-3.4,3.8-5c8.7-13.8,2.7-26.5,2.7-26.5&#10;&#9;&#9;&#9;C824.1,536.5,823.7,535.6,823.3,534.6z" style="opacity: 0.2903; fill: rgb(183, 183, 183);" transform="matrix(1.4177435636520388, 0, 0, 1.4046043157577512, -642.8414804178273, -357.07690769574765)"/><path class="st11" d="M822.7,534c-0.2-0.5-0.4-1-0.6-1.5c-0.2-0.5-0.4-1.1-0.5-1.6c-1-3.4-1.9-7.5-2.7-11.7&#10;&#9;&#9;&#9;c-2.8-15.7-3.8-34.5-3.8-34.5c1.2-21.5-3.1-38.5-10.6-51.9c-0.5-0.8-0.9-1.7-1.4-2.5c-2.5-4-5.2-7.7-8.2-11.1&#10;&#9;&#9;&#9;c-4.8-5.4-10.1-10-15.8-13.9c-1.4-1-2.9-1.9-4.3-2.8c-7.2-4.5-14.9-7.9-22.3-10.5c-4.5-1.6-8.8-2.9-13-4c-0.7-0.2-1.4-0.3-2.1-0.5&#10;&#9;&#9;&#9;c-1.4-0.3-2.7-0.6-4.1-0.9c-6.6-1.4-12.6-2.2-17.3-2.7c-1.4-0.1-2.7-0.3-3.9-0.4c-1.4-0.1-2.6-0.2-3.6-0.2c-1,0.1-2.2,0.1-3.6,0.2&#10;&#9;&#9;&#9;c-25.1,2-107.7,15-103,101.2c0,0-2.1,39.7-8.7,52c0,0-9.8,20.7,13.9,38.2c0,0,33,33.1,78.9,41.8c0,0,0.1,0,0.1,0&#10;&#9;&#9;&#9;c1.2,0.2,2.3,0.4,3.5,0.6c0,0,0,0,0.1,0c1.2,0.2,2.3,0.4,3.5,0.5c0.1,0,0.2,0,0.3,0c1,0.1,2.1,0.2,3.1,0.3c0.2,0,0.4,0,0.6,0.1&#10;&#9;&#9;&#9;c1.1,0.1,2.3,0.2,3.4,0.3c0.1,0,0.3,0,0.4,0c1,0.1,2,0.1,3,0.1c0.3,0,0.6,0,0.9,0c1.1,0,2.3,0,3.4,0l0,0h0l0,0&#10;&#9;&#9;&#9;c3.6,0,7.1-0.1,10.6-0.4c6.9-0.6,13.6-1.8,20-3.5c1.6-0.4,3.2-0.9,4.7-1.3c1.6-0.5,3.1-1,4.6-1.5c1.5-0.5,3-1,4.5-1.6&#10;&#9;&#9;&#9;c3.7-1.4,7.3-2.9,10.7-4.5c2.7-1.3,5.4-2.6,7.9-3.9c0.6-0.3,1.3-0.7,1.9-1c1.2-0.7,2.5-1.4,3.7-2c8.9-5.1,16.4-10.4,21.9-14.8&#10;&#9;&#9;&#9;c7-5.5,10.9-9.4,10.9-9.4c3-2.2,5.4-4.4,7.4-6.6c1.5-1.7,2.8-3.4,3.8-5c8.7-13.8,2.7-26.5,2.7-26.5&#10;&#9;&#9;&#9;C823.4,535.8,823,534.9,822.7,534z" style="opacity: 0.3226; fill: rgb(175, 175, 175);" transform="matrix(1.4177435636520388, 0, 0, 1.4046043157577512, -642.8414804178273, -357.07690769574765)"/><path class="st12" d="M822,533.3c-0.2-0.5-0.4-1-0.6-1.5c-0.2-0.5-0.4-1.1-0.5-1.6c-1-3.4-1.9-7.5-2.7-11.7&#10;&#9;&#9;&#9;c-2.8-15.7-3.8-34.5-3.8-34.5c1.2-21.5-3.1-38.5-10.6-51.9c-0.5-0.8-0.9-1.7-1.4-2.5c-2.5-4-5.2-7.7-8.2-11.1&#10;&#9;&#9;&#9;c-4.8-5.4-10.1-10-15.8-13.9c-1.4-1-2.9-1.9-4.3-2.8c-7.2-4.5-14.9-7.9-22.3-10.5c-4.5-1.6-8.8-2.9-13-4c-0.7-0.2-1.4-0.3-2.1-0.5&#10;&#9;&#9;&#9;c-1.4-0.3-2.7-0.6-4.1-0.9c-6.6-1.4-12.6-2.2-17.3-2.7c-1.4-0.1-2.7-0.3-3.9-0.4c-1.4-0.1-2.6-0.2-3.6-0.2c-1,0.1-2.2,0.1-3.6,0.2&#10;&#9;&#9;&#9;c-25.1,2-107.7,15-103,101.2c0,0-2.1,39.7-8.7,52c0,0-9.8,20.7,13.9,38.2c0,0,33,33.1,78.9,41.8c0,0,0.1,0,0.1,0&#10;&#9;&#9;&#9;c1.2,0.2,2.3,0.4,3.5,0.6c0,0,0,0,0.1,0c1.2,0.2,2.3,0.4,3.5,0.5c0.1,0,0.2,0,0.3,0c1,0.1,2.1,0.2,3.1,0.3c0.2,0,0.4,0,0.6,0.1&#10;&#9;&#9;&#9;c1.1,0.1,2.3,0.2,3.4,0.3c0.1,0,0.3,0,0.4,0c1,0.1,2,0.1,3,0.1c0.3,0,0.6,0,0.9,0c1.1,0,2.3,0,3.4,0h0h0l0,0&#10;&#9;&#9;&#9;c3.6,0,7.1-0.1,10.6-0.4c6.9-0.6,13.6-1.8,20-3.5c1.6-0.4,3.2-0.9,4.7-1.3s3.1-1,4.6-1.5c1.5-0.5,3-1,4.5-1.6&#10;&#9;&#9;&#9;c3.7-1.4,7.3-2.9,10.7-4.5c2.7-1.3,5.4-2.6,7.9-3.9c0.6-0.3,1.3-0.7,1.9-1c1.2-0.7,2.5-1.4,3.7-2c8.9-5.1,16.4-10.4,21.9-14.8&#10;&#9;&#9;&#9;c7-5.5,10.9-9.4,10.9-9.4c3-2.2,5.4-4.4,7.4-6.6c1.5-1.7,2.8-3.4,3.8-5c8.7-13.8,2.7-26.5,2.7-26.5&#10;&#9;&#9;&#9;C822.8,535.1,822.4,534.3,822,533.3z" style="opacity: 0.3548; fill: rgb(167, 167, 167);" transform="matrix(1.4177435636520388, 0, 0, 1.4046043157577512, -642.8414804178273, -357.07690769574765)"/><path class="st13" d="M821.4,532.6c-0.2-0.5-0.4-1-0.6-1.5c-0.2-0.5-0.4-1.1-0.5-1.6c-1-3.4-1.9-7.5-2.7-11.7&#10;&#9;&#9;&#9;c-2.8-15.7-3.8-34.5-3.8-34.5c1.2-21.5-3.1-38.5-10.6-51.9c-0.5-0.8-0.9-1.7-1.4-2.5c-2.5-4-5.2-7.7-8.2-11.1&#10;&#9;&#9;&#9;c-4.8-5.4-10.1-10-15.8-13.9c-1.4-1-2.9-1.9-4.3-2.8c-7.2-4.5-14.9-7.9-22.3-10.5c-4.5-1.6-8.8-2.9-13-4c-0.7-0.2-1.4-0.3-2.1-0.5&#10;&#9;&#9;&#9;c-1.4-0.3-2.7-0.6-4.1-0.9c-6.6-1.4-12.6-2.2-17.3-2.7c-1.4-0.1-2.7-0.3-3.9-0.4c-1.4-0.1-2.6-0.2-3.6-0.2c-1,0.1-2.2,0.1-3.6,0.2&#10;&#9;&#9;&#9;c-25.1,2-107.7,15-103,101.2c0,0-2.1,39.7-8.7,52c0,0-9.8,20.7,13.9,38.2c0,0,33,33.1,78.9,41.8c0,0,0.1,0,0.1,0&#10;&#9;&#9;&#9;c1.2,0.2,2.3,0.4,3.5,0.6c0,0,0,0,0.1,0c1.2,0.2,2.3,0.4,3.5,0.5c0.1,0,0.2,0,0.3,0c1,0.1,2.1,0.2,3.1,0.3c0.2,0,0.4,0,0.6,0.1&#10;&#9;&#9;&#9;c1.1,0.1,2.3,0.2,3.4,0.3c0.1,0,0.3,0,0.4,0c1,0.1,2,0.1,3,0.1c0.3,0,0.6,0,0.9,0c1.1,0,2.3,0,3.4,0h0h0l0,0&#10;&#9;&#9;&#9;c3.6,0,7.1-0.1,10.6-0.4c6.9-0.6,13.6-1.8,20-3.5c1.6-0.4,3.2-0.9,4.7-1.3c1.6-0.5,3.1-1,4.6-1.5c1.5-0.5,3-1,4.5-1.6&#10;&#9;&#9;&#9;c3.7-1.4,7.3-2.9,10.7-4.5c2.7-1.3,5.4-2.6,7.9-3.9c0.6-0.3,1.3-0.7,1.9-1c1.2-0.7,2.5-1.4,3.7-2c8.9-5.1,16.4-10.4,21.9-14.8&#10;&#9;&#9;&#9;c7-5.5,10.9-9.4,10.9-9.4c3-2.2,5.4-4.4,7.4-6.6c1.5-1.7,2.8-3.4,3.8-5c8.7-13.8,2.7-26.5,2.7-26.5&#10;&#9;&#9;&#9;C822.2,534.5,821.8,533.6,821.4,532.6z" style="opacity: 0.3871; fill: rgb(159, 159, 159);" transform="matrix(1.4177435636520388, 0, 0, 1.4046043157577512, -642.8414804178273, -357.07690769574765)"/><path class="st14" d="M820.8,531.9c-0.2-0.5-0.4-1-0.6-1.5c-0.2-0.5-0.4-1.1-0.5-1.6c-1-3.4-1.9-7.5-2.7-11.7&#10;&#9;&#9;&#9;c-2.8-15.7-3.8-34.5-3.8-34.5c1.2-21.5-3.1-38.5-10.6-51.9c-0.5-0.8-0.9-1.7-1.4-2.5c-2.5-4-5.2-7.7-8.2-11.1&#10;&#9;&#9;&#9;c-4.8-5.4-10.1-10-15.8-13.9c-1.4-1-2.9-1.9-4.3-2.8c-7.2-4.5-14.9-7.9-22.3-10.5c-4.5-1.6-8.8-2.9-13-4c-0.7-0.2-1.4-0.3-2.1-0.5&#10;&#9;&#9;&#9;c-1.4-0.3-2.7-0.6-4.1-0.9c-6.6-1.4-12.6-2.2-17.3-2.7c-1.4-0.1-2.7-0.3-3.9-0.4c-1.4-0.1-2.6-0.2-3.6-0.2c-1,0.1-2.2,0.1-3.6,0.2&#10;&#9;&#9;&#9;c-25.1,2-107.7,15-103,101.2c0,0-2.1,39.7-8.7,52c0,0-9.8,20.7,13.9,38.2c0,0,33,33.1,78.9,41.8c0,0,0.1,0,0.1,0&#10;&#9;&#9;&#9;c1.2,0.2,2.3,0.4,3.5,0.6c0,0,0,0,0.1,0c1.2,0.2,2.3,0.4,3.5,0.5c0.1,0,0.2,0,0.3,0c1,0.1,2.1,0.2,3.1,0.3c0.2,0,0.4,0,0.6,0.1&#10;&#9;&#9;&#9;c1.1,0.1,2.3,0.2,3.4,0.3c0.1,0,0.3,0,0.4,0c1,0.1,2,0.1,3,0.1c0.3,0,0.6,0,0.9,0c1.1,0,2.3,0,3.4,0h0h0l0,0&#10;&#9;&#9;&#9;c3.6,0,7.1-0.1,10.6-0.4c6.9-0.6,13.6-1.8,20-3.5c1.6-0.4,3.2-0.9,4.7-1.3c1.6-0.5,3.1-1,4.6-1.5c1.5-0.5,3-1,4.5-1.6&#10;&#9;&#9;&#9;c3.7-1.4,7.3-2.9,10.7-4.5c2.7-1.3,5.4-2.6,7.9-3.9c0.6-0.3,1.3-0.7,1.9-1c1.2-0.7,2.5-1.4,3.7-2c8.9-5.1,16.4-10.4,21.9-14.8&#10;&#9;&#9;&#9;c7-5.5,10.9-9.4,10.9-9.4c3-2.2,5.4-4.4,7.4-6.6c1.5-1.7,2.8-3.4,3.8-5c8.7-13.8,2.7-26.5,2.7-26.5&#10;&#9;&#9;&#9;C821.5,533.8,821.2,532.9,820.8,531.9z" style="opacity: 0.4194; fill: rgb(151, 151, 151);" transform="matrix(1.4177435636520388, 0, 0, 1.4046043157577512, -642.8414804178273, -357.07690769574765)"/><path class="st15" d="M820.1,531.3c-0.2-0.5-0.4-1-0.6-1.5c-0.2-0.5-0.4-1.1-0.5-1.6c-1-3.4-1.9-7.5-2.7-11.7&#10;&#9;&#9;&#9;c-2.8-15.7-3.8-34.5-3.8-34.5c1.2-21.5-3.1-38.5-10.6-51.9c-0.5-0.8-0.9-1.7-1.4-2.5c-2.5-4-5.2-7.7-8.2-11.1&#10;&#9;&#9;&#9;c-4.8-5.4-10.1-10-15.8-13.9c-1.4-1-2.9-1.9-4.3-2.8c-7.2-4.5-14.9-7.9-22.3-10.5c-4.5-1.6-8.8-2.9-13-4c-0.7-0.2-1.4-0.3-2.1-0.5&#10;&#9;&#9;&#9;c-1.4-0.3-2.7-0.6-4.1-0.9c-6.6-1.4-12.6-2.2-17.3-2.7c-1.4-0.1-2.7-0.3-3.9-0.4c-1.4-0.1-2.6-0.2-3.6-0.2c-1,0.1-2.2,0.1-3.6,0.2&#10;&#9;&#9;&#9;c-25.1,2-107.7,15-103,101.2c0,0-2.1,39.7-8.7,52c0,0-9.8,20.7,13.9,38.2c0,0,33,33.1,78.9,41.8c0,0,0.1,0,0.1,0&#10;&#9;&#9;&#9;c1.2,0.2,2.3,0.4,3.5,0.6c0,0,0,0,0.1,0c1.2,0.2,2.3,0.4,3.5,0.5c0.1,0,0.2,0,0.3,0c1,0.1,2.1,0.2,3.1,0.3c0.2,0,0.4,0,0.6,0.1&#10;&#9;&#9;&#9;c1.1,0.1,2.3,0.2,3.4,0.3c0.1,0,0.3,0,0.4,0c1,0.1,2,0.1,3,0.1c0.3,0,0.6,0,0.9,0c1.1,0,2.3,0,3.4,0h0h0l0,0&#10;&#9;&#9;&#9;c3.6,0,7.1-0.1,10.6-0.4c6.9-0.6,13.6-1.8,20-3.5c1.6-0.4,3.2-0.9,4.7-1.3c1.6-0.5,3.1-1,4.6-1.5c1.5-0.5,3-1,4.5-1.6&#10;&#9;&#9;&#9;c3.7-1.4,7.3-2.9,10.7-4.5c2.7-1.3,5.4-2.6,7.9-3.9c0.6-0.3,1.3-0.7,1.9-1c1.2-0.7,2.5-1.4,3.7-2c8.9-5.1,16.4-10.4,21.9-14.8&#10;&#9;&#9;&#9;c7-5.5,10.9-9.4,10.9-9.4c3-2.2,5.4-4.4,7.4-6.6c1.5-1.7,2.8-3.4,3.8-5c8.7-13.8,2.7-26.5,2.7-26.5&#10;&#9;&#9;&#9;C820.9,533.1,820.5,532.2,820.1,531.3z" style="opacity: 0.4516; fill: rgb(143, 143, 143);" transform="matrix(1.4177435636520388, 0, 0, 1.4046043157577512, -642.8414804178273, -357.07690769574765)"/><path class="st16" d="M819.5,530.6c-0.2-0.5-0.4-1-0.6-1.5c-0.2-0.5-0.4-1.1-0.5-1.6c-1-3.4-1.9-7.5-2.7-11.7&#10;&#9;&#9;&#9;c-2.8-15.7-3.8-34.5-3.8-34.5c1.2-21.5-3.1-38.5-10.6-51.9c-0.5-0.8-0.9-1.7-1.4-2.5c-2.5-4-5.2-7.7-8.2-11.1&#10;&#9;&#9;&#9;c-4.8-5.4-10.1-10-15.8-13.9c-1.4-1-2.9-1.9-4.3-2.8c-7.2-4.5-14.9-7.9-22.3-10.5c-4.5-1.6-8.8-2.9-13-4c-0.7-0.2-1.4-0.3-2.1-0.5&#10;&#9;&#9;&#9;c-1.4-0.3-2.7-0.6-4.1-0.9c-6.6-1.4-12.6-2.2-17.3-2.7c-1.4-0.1-2.7-0.3-3.9-0.4c-1.4-0.1-2.6-0.2-3.6-0.2c-1,0.1-2.2,0.1-3.6,0.2&#10;&#9;&#9;&#9;c-25.1,2-107.7,15-103,101.2c0,0-2.1,39.7-8.7,52c0,0-9.8,20.7,13.9,38.2c0,0,33,33.1,78.9,41.8c0,0,0.1,0,0.1,0&#10;&#9;&#9;&#9;c1.2,0.2,2.3,0.4,3.5,0.6c0,0,0,0,0.1,0c1.2,0.2,2.3,0.4,3.5,0.5c0.1,0,0.2,0,0.3,0c1,0.1,2.1,0.2,3.1,0.3c0.2,0,0.4,0,0.6,0.1&#10;&#9;&#9;&#9;c1.1,0.1,2.3,0.2,3.4,0.3c0.1,0,0.3,0,0.4,0c1,0.1,2,0.1,3,0.1c0.3,0,0.6,0,0.9,0c1.1,0,2.3,0,3.4,0h0h0l0,0&#10;&#9;&#9;&#9;c3.6,0,7.1-0.1,10.6-0.4c6.9-0.6,13.6-1.8,20-3.5c1.6-0.4,3.2-0.9,4.7-1.3c1.6-0.5,3.1-1,4.6-1.5c1.5-0.5,3-1,4.5-1.6&#10;&#9;&#9;&#9;c3.7-1.4,7.3-2.9,10.7-4.5c2.7-1.3,5.4-2.6,7.9-3.9c0.6-0.3,1.3-0.7,1.9-1c1.2-0.7,2.5-1.4,3.7-2c8.9-5.1,16.4-10.4,21.9-14.8&#10;&#9;&#9;&#9;c7-5.5,10.9-9.4,10.9-9.4c3-2.2,5.4-4.4,7.4-6.6c1.5-1.7,2.8-3.4,3.8-5c8.7-13.8,2.7-26.5,2.7-26.5&#10;&#9;&#9;&#9;C820.3,532.4,819.9,531.5,819.5,530.6z" style="opacity: 0.4839; fill: rgb(135, 135, 135);" transform="matrix(1.4177435636520388, 0, 0, 1.4046043157577512, -642.8414804178273, -357.07690769574765)"/><path class="st17" d="M818.9,529.9c-0.2-0.5-0.4-1-0.6-1.5c-0.2-0.5-0.4-1.1-0.5-1.6c-1-3.4-1.9-7.5-2.7-11.7&#10;&#9;&#9;&#9;c-2.8-15.7-3.8-34.5-3.8-34.5c1.2-21.5-3.1-38.5-10.6-51.9c-0.5-0.8-0.9-1.7-1.4-2.5c-2.5-4-5.2-7.7-8.2-11.1&#10;&#9;&#9;&#9;c-4.8-5.4-10.1-10-15.8-13.9c-1.4-1-2.9-1.9-4.3-2.8c-7.2-4.5-14.9-7.9-22.3-10.5c-4.5-1.6-8.8-2.9-13-4c-0.7-0.2-1.4-0.3-2.1-0.5&#10;&#9;&#9;&#9;c-1.4-0.3-2.7-0.6-4.1-0.9c-6.6-1.4-12.6-2.2-17.3-2.7c-1.4-0.1-2.7-0.3-3.9-0.4c-1.4-0.1-2.6-0.2-3.6-0.2c-1,0.1-2.2,0.1-3.6,0.2&#10;&#9;&#9;&#9;c-25.1,2-107.7,15-103,101.2c0,0-2.1,39.7-8.7,52c0,0-9.8,20.7,13.9,38.2c0,0,33,33.1,78.9,41.8c0,0,0.1,0,0.1,0&#10;&#9;&#9;&#9;c1.2,0.2,2.3,0.4,3.5,0.6c0,0,0,0,0.1,0c1.2,0.2,2.3,0.4,3.5,0.5c0.1,0,0.2,0,0.3,0c1,0.1,2.1,0.2,3.1,0.3c0.2,0,0.4,0,0.6,0.1&#10;&#9;&#9;&#9;c1.1,0.1,2.3,0.2,3.4,0.3c0.1,0,0.3,0,0.4,0c1,0.1,2,0.1,3,0.1c0.3,0,0.6,0,0.9,0c1.1,0,2.3,0,3.4,0h0h0l0,0&#10;&#9;&#9;&#9;c3.6,0,7.1-0.1,10.6-0.4c6.9-0.6,13.6-1.8,20-3.5c1.6-0.4,3.2-0.9,4.7-1.3s3.1-1,4.6-1.5c1.5-0.5,3-1,4.5-1.6&#10;&#9;&#9;&#9;c3.7-1.4,7.3-2.9,10.7-4.5c2.7-1.3,5.4-2.6,7.9-3.9c0.6-0.3,1.3-0.7,1.9-1c1.2-0.7,2.5-1.4,3.7-2c8.9-5.1,16.4-10.4,21.9-14.8&#10;&#9;&#9;&#9;c7-5.5,10.9-9.4,10.9-9.4c3-2.2,5.4-4.4,7.4-6.6c1.5-1.7,2.8-3.4,3.8-5c8.7-13.8,2.7-26.5,2.7-26.5&#10;&#9;&#9;&#9;C819.7,531.7,819.3,530.9,818.9,529.9z" style="opacity: 0.5161; fill: rgb(127, 127, 127);" transform="matrix(1.4177435636520388, 0, 0, 1.4046043157577512, -642.8414804178273, -357.07690769574765)"/><path class="st18" d="M818.3,529.2c-0.2-0.5-0.4-1-0.6-1.5c-0.2-0.5-0.4-1.1-0.5-1.6c-1-3.4-1.9-7.5-2.7-11.7&#10;&#9;&#9;&#9;c-2.8-15.7-3.8-34.5-3.8-34.5c1.2-21.5-3.1-38.5-10.6-51.9c-0.5-0.8-0.9-1.7-1.4-2.5c-2.5-4-5.2-7.7-8.2-11.1&#10;&#9;&#9;&#9;c-4.8-5.4-10.1-10-15.8-13.9c-1.4-1-2.9-1.9-4.3-2.8c-7.2-4.5-14.9-7.9-22.3-10.5c-4.5-1.6-8.8-2.9-13-4c-0.7-0.2-1.4-0.3-2.1-0.5&#10;&#9;&#9;&#9;c-1.4-0.3-2.7-0.6-4.1-0.9c-6.6-1.4-12.6-2.2-17.3-2.7c-1.4-0.1-2.7-0.3-3.9-0.4c-1.4-0.1-2.6-0.2-3.6-0.2c-1,0.1-2.2,0.1-3.6,0.2&#10;&#9;&#9;&#9;c-25.1,2-107.7,15-103,101.2c0,0-2.1,39.7-8.7,52c0,0-9.8,20.7,13.9,38.2c0,0,33,33.1,78.9,41.8c0,0,0.1,0,0.1,0&#10;&#9;&#9;&#9;c1.2,0.2,2.3,0.4,3.5,0.6c0,0,0,0,0.1,0c1.2,0.2,2.3,0.4,3.5,0.5c0.1,0,0.2,0,0.3,0c1,0.1,2.1,0.2,3.1,0.3c0.2,0,0.4,0,0.6,0.1&#10;&#9;&#9;&#9;c1.1,0.1,2.3,0.2,3.4,0.3c0.1,0,0.3,0,0.4,0c1,0.1,2,0.1,3,0.1c0.3,0,0.6,0,0.9,0c1.1,0,2.3,0,3.4,0h0h0l0,0&#10;&#9;&#9;&#9;c3.6,0,7.1-0.1,10.6-0.4c6.9-0.6,13.6-1.8,20-3.5c1.6-0.4,3.2-0.9,4.7-1.3c1.6-0.5,3.1-1,4.6-1.5c1.5-0.5,3-1,4.5-1.6&#10;&#9;&#9;&#9;c3.7-1.4,7.3-2.9,10.7-4.5c2.7-1.3,5.4-2.6,7.9-3.9c0.6-0.3,1.3-0.7,1.9-1c1.2-0.7,2.5-1.4,3.7-2c8.9-5.1,16.4-10.4,21.9-14.8&#10;&#9;&#9;&#9;c7-5.5,10.9-9.4,10.9-9.4c3-2.2,5.4-4.4,7.4-6.6c1.5-1.7,2.8-3.4,3.8-5c8.7-13.8,2.7-26.5,2.7-26.5&#10;&#9;&#9;&#9;C819,531.1,818.6,530.2,818.3,529.2z" style="opacity: 0.5484; fill: rgb(119, 119, 119);" transform="matrix(1.4177435636520388, 0, 0, 1.4046043157577512, -642.8414804178273, -357.07690769574765)"/><path class="st19" d="M817.6,528.5c-0.2-0.5-0.4-1-0.6-1.5c-0.2-0.5-0.4-1.1-0.5-1.6c-1-3.4-1.9-7.5-2.7-11.7&#10;&#9;&#9;&#9;c-2.8-15.7-3.8-34.5-3.8-34.5c1.2-21.5-3.1-38.5-10.6-51.9c-0.5-0.8-0.9-1.7-1.4-2.5c-2.5-4-5.2-7.7-8.2-11.1&#10;&#9;&#9;&#9;c-4.8-5.4-10.1-10-15.8-13.9c-1.4-1-2.9-1.9-4.3-2.8c-7.2-4.5-14.9-7.9-22.3-10.5c-4.5-1.6-8.8-2.9-13-4c-0.7-0.2-1.4-0.3-2.1-0.5&#10;&#9;&#9;&#9;c-1.4-0.3-2.7-0.6-4.1-0.9c-6.6-1.4-12.6-2.2-17.3-2.7c-1.4-0.1-2.7-0.3-3.9-0.4c-1.4-0.1-2.6-0.2-3.6-0.2c-1,0.1-2.2,0.1-3.6,0.2&#10;&#9;&#9;&#9;c-25.1,2-107.7,15-103,101.2c0,0-2.1,39.7-8.7,52c0,0-9.8,20.7,13.9,38.2c0,0,33,33.1,78.9,41.8c0,0,0.1,0,0.1,0&#10;&#9;&#9;&#9;c1.2,0.2,2.3,0.4,3.5,0.6c0,0,0,0,0.1,0c1.2,0.2,2.3,0.4,3.5,0.5c0.1,0,0.2,0,0.3,0c1,0.1,2.1,0.2,3.1,0.3c0.2,0,0.4,0,0.6,0.1&#10;&#9;&#9;&#9;c1.1,0.1,2.3,0.2,3.4,0.3c0.1,0,0.3,0,0.4,0c1,0.1,2,0.1,3,0.1c0.3,0,0.6,0,0.9,0c1.1,0,2.3,0,3.4,0h0h0l0,0&#10;&#9;&#9;&#9;c3.6,0,7.1-0.1,10.6-0.4c6.9-0.6,13.6-1.8,20-3.5c1.6-0.4,3.2-0.9,4.7-1.3s3.1-1,4.6-1.5c1.5-0.5,3-1,4.5-1.6&#10;&#9;&#9;&#9;c3.7-1.4,7.3-2.9,10.7-4.5c2.7-1.3,5.4-2.6,7.9-3.9c0.6-0.3,1.3-0.7,1.9-1c1.2-0.7,2.5-1.4,3.7-2c8.9-5.1,16.4-10.4,21.9-14.8&#10;&#9;&#9;&#9;c7-5.5,10.9-9.4,10.9-9.4c3-2.2,5.4-4.4,7.4-6.6c1.5-1.7,2.8-3.4,3.8-5c8.7-13.8,2.7-26.5,2.7-26.5&#10;&#9;&#9;&#9;C818.4,530.4,818,529.5,817.6,528.5z" style="opacity: 0.5806; fill: rgb(111, 111, 111);" transform="matrix(1.4177435636520388, 0, 0, 1.4046043157577512, -642.8414804178273, -357.07690769574765)"/><path class="st20" d="M817,527.9c-0.2-0.5-0.4-1-0.6-1.5c-0.2-0.5-0.4-1.1-0.5-1.6c-1-3.4-1.9-7.5-2.7-11.7&#10;&#9;&#9;&#9;c-2.8-15.7-3.8-34.5-3.8-34.5c1.2-21.5-3.1-38.5-10.6-51.9c-0.5-0.8-0.9-1.7-1.4-2.5c-2.5-4-5.2-7.7-8.2-11.1&#10;&#9;&#9;&#9;c-4.8-5.4-10.1-10-15.8-13.9c-1.4-1-2.9-1.9-4.3-2.8c-7.2-4.5-14.9-7.9-22.3-10.5c-4.5-1.6-8.8-2.9-13-4c-0.7-0.2-1.4-0.3-2.1-0.5&#10;&#9;&#9;&#9;c-1.4-0.3-2.7-0.6-4.1-0.9c-6.6-1.4-12.6-2.2-17.3-2.7c-1.4-0.1-2.7-0.3-3.9-0.4c-1.4-0.1-2.6-0.2-3.6-0.2c-1,0.1-2.2,0.1-3.6,0.2&#10;&#9;&#9;&#9;c-25.1,2-107.7,15-103,101.2c0,0-2.1,39.7-8.7,52c0,0-9.8,20.7,13.9,38.2c0,0,33,33.1,78.9,41.8c0,0,0.1,0,0.1,0&#10;&#9;&#9;&#9;c1.2,0.2,2.3,0.4,3.5,0.6c0,0,0,0,0.1,0c1.2,0.2,2.3,0.4,3.5,0.5c0.1,0,0.2,0,0.3,0c1,0.1,2.1,0.2,3.1,0.3c0.2,0,0.4,0,0.6,0.1&#10;&#9;&#9;&#9;c1.1,0.1,2.3,0.2,3.4,0.3c0.1,0,0.3,0,0.4,0c1,0.1,2,0.1,3,0.1c0.3,0,0.6,0,0.9,0c1.1,0,2.3,0,3.4,0h0h0l0,0&#10;&#9;&#9;&#9;c3.6,0,7.1-0.1,10.6-0.4c6.9-0.6,13.6-1.8,20-3.5c1.6-0.4,3.2-0.9,4.7-1.3c1.6-0.5,3.1-1,4.6-1.5c1.5-0.5,3-1,4.5-1.6&#10;&#9;&#9;&#9;c3.7-1.4,7.3-2.9,10.7-4.5c2.7-1.3,5.4-2.6,7.9-3.9c0.6-0.3,1.3-0.7,1.9-1c1.2-0.7,2.5-1.4,3.7-2c8.9-5.1,16.4-10.4,21.9-14.8&#10;&#9;&#9;&#9;c7-5.5,10.9-9.4,10.9-9.4c3-2.2,5.4-4.4,7.4-6.6c1.5-1.7,2.8-3.4,3.8-5c8.7-13.8,2.7-26.5,2.7-26.5&#10;&#9;&#9;&#9;C817.8,529.7,817.4,528.8,817,527.9z" style="opacity: 0.6129; fill: rgb(103, 103, 103);" transform="matrix(1.4177435636520388, 0, 0, 1.4046043157577512, -642.8414804178273, -357.07690769574765)"/><path class="st21" d="M816.4,527.2c-0.2-0.5-0.4-1-0.6-1.5c-0.2-0.5-0.4-1.1-0.5-1.6c-1-3.4-1.9-7.5-2.7-11.7&#10;&#9;&#9;&#9;c-2.8-15.7-3.8-34.5-3.8-34.5c1.2-21.5-3.1-38.5-10.6-51.9c-0.5-0.8-0.9-1.7-1.4-2.5c-2.5-4-5.2-7.7-8.2-11.1&#10;&#9;&#9;&#9;c-4.8-5.4-10.1-10-15.8-13.9c-1.4-1-2.9-1.9-4.3-2.8c-7.2-4.5-14.9-7.9-22.3-10.5c-4.5-1.6-8.8-2.9-13-4c-0.7-0.2-1.4-0.3-2.1-0.5&#10;&#9;&#9;&#9;c-1.4-0.3-2.7-0.6-4.1-0.9c-6.6-1.4-12.6-2.2-17.3-2.7c-1.4-0.1-2.7-0.3-3.9-0.4c-1.4-0.1-2.6-0.2-3.6-0.2c-1,0.1-2.2,0.1-3.6,0.2&#10;&#9;&#9;&#9;c-25.1,2-107.7,15-103,101.2c0,0-2.1,39.7-8.7,52c0,0-9.8,20.7,13.9,38.2c0,0,33,33.1,78.9,41.8c0,0,0.1,0,0.1,0&#10;&#9;&#9;&#9;c1.2,0.2,2.3,0.4,3.5,0.6c0,0,0,0,0.1,0c1.2,0.2,2.3,0.4,3.5,0.5c0.1,0,0.2,0,0.3,0c1,0.1,2.1,0.2,3.1,0.3c0.2,0,0.4,0,0.6,0.1&#10;&#9;&#9;&#9;c1.1,0.1,2.3,0.2,3.4,0.3c0.1,0,0.3,0,0.4,0c1,0.1,2,0.1,3,0.1c0.3,0,0.6,0,0.9,0c1.1,0,2.3,0,3.4,0h0h0l0,0&#10;&#9;&#9;&#9;c3.6,0,7.1-0.1,10.6-0.4c6.9-0.6,13.6-1.8,20-3.5c1.6-0.4,3.2-0.9,4.7-1.3c1.6-0.5,3.1-1,4.6-1.5c1.5-0.5,3-1,4.5-1.6&#10;&#9;&#9;&#9;c3.7-1.4,7.3-2.9,10.7-4.5c2.7-1.3,5.4-2.6,7.9-3.9c0.6-0.3,1.3-0.7,1.9-1c1.2-0.7,2.5-1.4,3.7-2c8.9-5.1,16.4-10.4,21.9-14.8&#10;&#9;&#9;&#9;c7-5.5,10.9-9.4,10.9-9.4c3-2.2,5.4-4.4,7.4-6.6c1.5-1.7,2.8-3.4,3.8-5c8.7-13.8,2.7-26.5,2.7-26.5&#10;&#9;&#9;&#9;C817.1,529,816.8,528.2,816.4,527.2z" style="opacity: 0.6452; fill: rgb(95, 95, 95);" transform="matrix(1.4177435636520388, 0, 0, 1.4046043157577512, -642.8414804178273, -357.07690769574765)"/><path class="st22" d="M815.7,526.5c-0.2-0.5-0.4-1-0.6-1.5c-0.2-0.5-0.4-1.1-0.5-1.6c-1-3.4-1.9-7.5-2.7-11.7&#10;&#9;&#9;&#9;c-2.8-15.7-3.8-34.5-3.8-34.5c1.2-21.5-3.1-38.5-10.6-51.9c-0.5-0.8-0.9-1.7-1.4-2.5c-2.5-4-5.2-7.7-8.2-11.1&#10;&#9;&#9;&#9;c-4.8-5.4-10.1-10-15.8-13.9c-1.4-1-2.9-1.9-4.3-2.8c-7.2-4.5-14.9-7.9-22.3-10.5c-4.5-1.6-8.8-2.9-13-4c-0.7-0.2-1.4-0.3-2.1-0.5&#10;&#9;&#9;&#9;c-1.4-0.3-2.7-0.6-4.1-0.9c-6.6-1.4-12.6-2.2-17.3-2.7c-1.4-0.1-2.7-0.3-3.9-0.4c-1.4-0.1-2.6-0.2-3.6-0.2c-1,0.1-2.2,0.1-3.6,0.2&#10;&#9;&#9;&#9;c-25.1,2-107.7,15-103,101.2c0,0-2.1,39.7-8.7,52c0,0-9.8,20.7,13.9,38.2c0,0,33,33.1,78.9,41.8c0,0,0.1,0,0.1,0&#10;&#9;&#9;&#9;c1.2,0.2,2.3,0.4,3.5,0.6c0,0,0,0,0.1,0c1.2,0.2,2.3,0.4,3.5,0.5c0.1,0,0.2,0,0.3,0c1,0.1,2.1,0.2,3.1,0.3c0.2,0,0.4,0,0.6,0.1&#10;&#9;&#9;&#9;c1.1,0.1,2.3,0.2,3.4,0.3c0.1,0,0.3,0,0.4,0c1,0.1,2,0.1,3,0.1c0.3,0,0.6,0,0.9,0c1.1,0,2.3,0,3.4,0h0h0l0,0&#10;&#9;&#9;&#9;c3.6,0,7.1-0.1,10.6-0.4c6.9-0.6,13.6-1.8,20-3.5c1.6-0.4,3.2-0.9,4.7-1.3c1.6-0.5,3.1-1,4.6-1.5c1.5-0.5,3-1,4.5-1.6&#10;&#9;&#9;&#9;c3.7-1.4,7.3-2.9,10.7-4.5c2.7-1.3,5.4-2.6,7.9-3.9c0.6-0.3,1.3-0.7,1.9-1c1.2-0.7,2.5-1.4,3.7-2c8.9-5.1,16.4-10.4,21.9-14.8&#10;&#9;&#9;&#9;c7-5.5,10.9-9.4,10.9-9.4c3-2.2,5.4-4.4,7.4-6.6c1.5-1.7,2.8-3.4,3.8-5c8.7-13.8,2.7-26.5,2.7-26.5&#10;&#9;&#9;&#9;C816.5,528.4,816.1,527.5,815.7,526.5z" style="opacity: 0.6774; fill: rgb(87, 87, 87);" transform="matrix(1.4177435636520388, 0, 0, 1.4046043157577512, -642.8414804178273, -357.07690769574765)"/><path class="st23" d="M815.1,525.8c-0.2-0.5-0.4-1-0.6-1.5c-0.2-0.5-0.4-1.1-0.5-1.6c-1-3.4-1.9-7.5-2.7-11.7&#10;&#9;&#9;&#9;c-2.8-15.7-3.8-34.5-3.8-34.5c1.2-21.5-3.1-38.5-10.6-51.9c-0.5-0.8-0.9-1.7-1.4-2.5c-2.5-4-5.2-7.7-8.2-11.1&#10;&#9;&#9;&#9;c-4.8-5.4-10.1-10-15.8-13.9c-1.4-1-2.9-1.9-4.3-2.8c-7.2-4.5-14.9-7.9-22.3-10.5c-4.5-1.6-8.8-2.9-13-4c-0.7-0.2-1.4-0.3-2.1-0.5&#10;&#9;&#9;&#9;c-1.4-0.3-2.7-0.6-4.1-0.9c-6.6-1.4-12.6-2.2-17.3-2.7c-1.4-0.1-2.7-0.3-3.9-0.4c-1.4-0.1-2.6-0.2-3.6-0.2c-1,0.1-2.2,0.1-3.6,0.2&#10;&#9;&#9;&#9;c-25.1,2-107.7,15-103,101.2c0,0-2.1,39.7-8.7,52c0,0-9.8,20.7,13.9,38.2c0,0,33,33.1,78.9,41.8c0,0,0.1,0,0.1,0&#10;&#9;&#9;&#9;c1.2,0.2,2.3,0.4,3.5,0.6c0,0,0,0,0.1,0c1.2,0.2,2.3,0.4,3.5,0.5c0.1,0,0.2,0,0.3,0c1,0.1,2.1,0.2,3.1,0.3c0.2,0,0.4,0,0.6,0.1&#10;&#9;&#9;&#9;c1.1,0.1,2.3,0.2,3.4,0.3c0.1,0,0.3,0,0.4,0c1,0.1,2,0.1,3,0.1c0.3,0,0.6,0,0.9,0c1.1,0,2.3,0,3.4,0h0h0l0,0&#10;&#9;&#9;&#9;c3.6,0,7.1-0.1,10.6-0.4c6.9-0.6,13.6-1.8,20-3.5c1.6-0.4,3.2-0.9,4.7-1.3c1.6-0.5,3.1-1,4.6-1.5c1.5-0.5,3-1,4.5-1.6&#10;&#9;&#9;&#9;c3.7-1.4,7.3-2.9,10.7-4.5c2.7-1.3,5.4-2.6,7.9-3.9c0.6-0.3,1.3-0.7,1.9-1c1.2-0.7,2.5-1.4,3.7-2c8.9-5.1,16.4-10.4,21.9-14.8&#10;&#9;&#9;&#9;c7-5.5,10.9-9.4,10.9-9.4c3-2.2,5.4-4.4,7.4-6.6c1.5-1.7,2.8-3.4,3.8-5c8.7-13.8,2.7-26.5,2.7-26.5&#10;&#9;&#9;&#9;C815.9,527.7,815.5,526.8,815.1,525.8z" style="opacity: 0.7097; fill: rgb(79, 79, 79);" transform="matrix(1.4177435636520388, 0, 0, 1.4046043157577512, -642.8414804178273, -357.07690769574765)"/><path class="st24" d="M814.5,525.2c-0.2-0.5-0.4-1-0.6-1.5c-0.2-0.5-0.4-1.1-0.5-1.6c-1-3.4-1.9-7.5-2.7-11.7&#10;&#9;&#9;&#9;c-2.8-15.7-3.8-34.5-3.8-34.5c1.2-21.5-3.1-38.5-10.6-51.9c-0.5-0.8-0.9-1.7-1.4-2.5c-2.5-4-5.2-7.7-8.2-11.1&#10;&#9;&#9;&#9;c-4.8-5.4-10.1-10-15.8-13.9c-1.4-1-2.9-1.9-4.3-2.8c-7.2-4.5-14.9-7.9-22.3-10.5c-4.5-1.6-8.8-2.9-13-4c-0.7-0.2-1.4-0.3-2.1-0.5&#10;&#9;&#9;&#9;c-1.4-0.3-2.7-0.6-4.1-0.9c-6.6-1.4-12.6-2.2-17.3-2.7c-1.4-0.1-2.7-0.3-3.9-0.4c-1.4-0.1-2.6-0.2-3.6-0.2c-1,0.1-2.2,0.1-3.6,0.2&#10;&#9;&#9;&#9;c-25.1,2-107.7,15-103,101.2c0,0-2.1,39.7-8.7,52c0,0-9.8,20.7,13.9,38.2c0,0,33,33.1,78.9,41.8c0,0,0.1,0,0.1,0&#10;&#9;&#9;&#9;c1.2,0.2,2.3,0.4,3.5,0.6c0,0,0,0,0.1,0c1.2,0.2,2.3,0.4,3.5,0.5c0.1,0,0.2,0,0.3,0c1,0.1,2.1,0.2,3.1,0.3c0.2,0,0.4,0,0.6,0.1&#10;&#9;&#9;&#9;c1.1,0.1,2.3,0.2,3.4,0.3c0.1,0,0.3,0,0.4,0c1,0.1,2,0.1,3,0.1c0.3,0,0.6,0,0.9,0c1.1,0,2.3,0,3.4,0h0h0l0,0&#10;&#9;&#9;&#9;c3.6,0,7.1-0.1,10.6-0.4c6.9-0.6,13.6-1.8,20-3.5c1.6-0.4,3.2-0.9,4.7-1.3s3.1-1,4.6-1.5c1.5-0.5,3-1,4.5-1.6&#10;&#9;&#9;&#9;c3.7-1.4,7.3-2.9,10.7-4.5c2.7-1.3,5.4-2.6,7.9-3.9c0.6-0.3,1.3-0.7,1.9-1c1.2-0.7,2.5-1.4,3.7-2c8.9-5.1,16.4-10.4,21.9-14.8&#10;&#9;&#9;&#9;c7-5.5,10.9-9.4,10.9-9.4c3-2.2,5.4-4.4,7.4-6.6c1.5-1.7,2.8-3.4,3.8-5c8.7-13.8,2.7-26.5,2.7-26.5&#10;&#9;&#9;&#9;C815.3,527,814.9,526.1,814.5,525.2z" style="opacity: 0.7419; fill: rgb(71, 71, 71);" transform="matrix(1.4177435636520388, 0, 0, 1.4046043157577512, -642.8414804178273, -357.07690769574765)"/><path class="st25" d="M813.9,524.5c-0.2-0.5-0.4-1-0.6-1.5c-0.2-0.5-0.4-1.1-0.5-1.6c-1-3.4-1.9-7.5-2.7-11.7&#10;&#9;&#9;&#9;c-2.8-15.7-3.8-34.5-3.8-34.5c1.2-21.5-3.1-38.5-10.6-51.9c-0.5-0.8-0.9-1.7-1.4-2.5c-2.5-4-5.2-7.7-8.2-11.1&#10;&#9;&#9;&#9;c-4.8-5.4-10.1-10-15.8-13.9c-1.4-1-2.9-1.9-4.3-2.8c-7.2-4.5-14.9-7.9-22.3-10.5c-4.5-1.6-8.8-2.9-13-4c-0.7-0.2-1.4-0.3-2.1-0.5&#10;&#9;&#9;&#9;c-1.4-0.3-2.7-0.6-4.1-0.9c-6.6-1.4-12.6-2.2-17.3-2.7c-1.4-0.1-2.7-0.3-3.9-0.4c-1.4-0.1-2.6-0.2-3.6-0.2c-1,0.1-2.2,0.1-3.6,0.2&#10;&#9;&#9;&#9;c-25.1,2-107.7,15-103,101.2c0,0-2.1,39.7-8.7,52c0,0-9.8,20.7,13.9,38.2c0,0,33,33.1,78.9,41.8c0,0,0.1,0,0.1,0&#10;&#9;&#9;&#9;c1.2,0.2,2.3,0.4,3.5,0.6c0,0,0,0,0.1,0c1.2,0.2,2.3,0.4,3.5,0.5c0.1,0,0.2,0,0.3,0c1,0.1,2.1,0.2,3.1,0.3c0.2,0,0.4,0,0.6,0.1&#10;&#9;&#9;&#9;c1.1,0.1,2.3,0.2,3.4,0.3c0.1,0,0.3,0,0.4,0c1,0.1,2,0.1,3,0.1c0.3,0,0.6,0,0.9,0c1.1,0,2.3,0,3.4,0h0h0l0,0&#10;&#9;&#9;&#9;c3.6,0,7.1-0.1,10.6-0.4c6.9-0.6,13.6-1.8,20-3.5c1.6-0.4,3.2-0.9,4.7-1.3c1.6-0.5,3.1-1,4.6-1.5c1.5-0.5,3-1,4.5-1.6&#10;&#9;&#9;&#9;c3.7-1.4,7.3-2.9,10.7-4.5c2.7-1.3,5.4-2.6,7.9-3.9c0.6-0.3,1.3-0.7,1.9-1c1.2-0.7,2.5-1.4,3.7-2c8.9-5.1,16.4-10.4,21.9-14.8&#10;&#9;&#9;&#9;c7-5.5,10.9-9.4,10.9-9.4c3-2.2,5.4-4.4,7.4-6.6c1.5-1.7,2.8-3.4,3.8-5c8.7-13.8,2.7-26.5,2.7-26.5&#10;&#9;&#9;&#9;C814.6,526.3,814.2,525.4,813.9,524.5z" style="opacity: 0.7742; fill: rgb(63, 63, 63);" transform="matrix(1.4177435636520388, 0, 0, 1.4046043157577512, -642.8414804178273, -357.07690769574765)"/><path class="st26" d="M813.2,523.8c-0.2-0.5-0.4-1-0.6-1.5c-0.2-0.5-0.4-1.1-0.5-1.6c-1-3.4-1.9-7.5-2.7-11.7&#10;&#9;&#9;&#9;c-2.8-15.7-3.8-34.5-3.8-34.5c1.2-21.5-3.1-38.5-10.6-51.9c-0.5-0.8-0.9-1.7-1.4-2.5c-2.5-4-5.2-7.7-8.2-11.1&#10;&#9;&#9;&#9;c-4.8-5.4-10.1-10-15.8-13.9c-1.4-1-2.9-1.9-4.3-2.8c-7.2-4.5-14.9-7.9-22.3-10.5c-4.5-1.6-8.8-2.9-13-4c-0.7-0.2-1.4-0.3-2.1-0.5&#10;&#9;&#9;&#9;c-1.4-0.3-2.7-0.6-4.1-0.9c-6.6-1.4-12.6-2.2-17.3-2.7c-1.4-0.1-2.7-0.3-3.9-0.4c-1.4-0.1-2.6-0.2-3.6-0.2c-1,0.1-2.2,0.1-3.6,0.2&#10;&#9;&#9;&#9;c-25.1,2-107.7,15-103,101.2c0,0-2.1,39.7-8.7,52c0,0-9.8,20.7,13.9,38.2c0,0,33,33.1,78.9,41.8c0,0,0.1,0,0.1,0&#10;&#9;&#9;&#9;c1.2,0.2,2.3,0.4,3.5,0.6c0,0,0,0,0.1,0c1.2,0.2,2.3,0.4,3.5,0.5c0.1,0,0.2,0,0.3,0c1,0.1,2.1,0.2,3.1,0.3c0.2,0,0.4,0,0.6,0.1&#10;&#9;&#9;&#9;c1.1,0.1,2.3,0.2,3.4,0.3c0.1,0,0.3,0,0.4,0c1,0.1,2,0.1,3,0.1c0.3,0,0.6,0,0.9,0c1.1,0,2.3,0,3.4,0h0h0l0,0&#10;&#9;&#9;&#9;c3.6,0,7.1-0.1,10.6-0.4c6.9-0.6,13.6-1.8,20-3.5c1.6-0.4,3.2-0.9,4.7-1.3s3.1-1,4.6-1.5c1.5-0.5,3-1,4.5-1.6&#10;&#9;&#9;&#9;c3.7-1.4,7.3-2.9,10.7-4.5c2.7-1.3,5.4-2.6,7.9-3.9c0.6-0.3,1.3-0.7,1.9-1c1.2-0.7,2.5-1.4,3.7-2c8.9-5.1,16.4-10.4,21.9-14.8&#10;&#9;&#9;&#9;c7-5.5,10.9-9.4,10.9-9.4c3-2.2,5.4-4.4,7.4-6.6c1.5-1.7,2.8-3.4,3.8-5c8.7-13.8,2.7-26.5,2.7-26.5&#10;&#9;&#9;&#9;C814,525.6,813.6,524.8,813.2,523.8z" style="opacity: 0.8065; fill: rgb(55, 55, 55);" transform="matrix(1.4177435636520388, 0, 0, 1.4046043157577512, -642.8414804178273, -357.07690769574765)"/><path class="st27" d="M812.6,523.1c-0.2-0.5-0.4-1-0.6-1.5c-0.2-0.5-0.4-1.1-0.5-1.6c-1-3.4-1.9-7.5-2.7-11.7&#10;&#9;&#9;&#9;c-2.8-15.7-3.8-34.5-3.8-34.5c1.2-21.5-3.1-38.5-10.6-51.9c-0.5-0.8-0.9-1.7-1.4-2.5c-2.5-4-5.2-7.7-8.2-11.1&#10;&#9;&#9;&#9;c-4.8-5.4-10.1-10-15.8-13.9c-1.4-1-2.9-1.9-4.3-2.8c-7.2-4.5-14.9-7.9-22.3-10.5c-4.5-1.6-8.8-2.9-13-4c-0.7-0.2-1.4-0.3-2.1-0.5&#10;&#9;&#9;&#9;c-1.4-0.3-2.7-0.6-4.1-0.9c-6.6-1.4-12.6-2.2-17.3-2.7c-1.4-0.1-2.7-0.3-3.9-0.4c-1.4-0.1-2.6-0.2-3.6-0.2c-1,0.1-2.2,0.1-3.6,0.2&#10;&#9;&#9;&#9;c-25.1,2-107.7,15-103,101.2c0,0-2.1,39.7-8.7,52c0,0-9.8,20.7,13.9,38.2c0,0,33,33.1,78.9,41.8c0,0,0.1,0,0.1,0&#10;&#9;&#9;&#9;c1.2,0.2,2.3,0.4,3.5,0.6c0,0,0,0,0.1,0c1.2,0.2,2.3,0.4,3.5,0.5c0.1,0,0.2,0,0.3,0c1,0.1,2.1,0.2,3.1,0.3c0.2,0,0.4,0,0.6,0.1&#10;&#9;&#9;&#9;c1.1,0.1,2.3,0.2,3.4,0.3c0.1,0,0.3,0,0.4,0c1,0.1,2,0.1,3,0.1c0.3,0,0.6,0,0.9,0c1.1,0,2.3,0,3.4,0h0h0l0,0&#10;&#9;&#9;&#9;c3.6,0,7.1-0.1,10.6-0.4c6.9-0.6,13.6-1.8,20-3.5c1.6-0.4,3.2-0.9,4.7-1.3c1.6-0.5,3.1-1,4.6-1.5c1.5-0.5,3-1,4.5-1.6&#10;&#9;&#9;&#9;c3.7-1.4,7.3-2.9,10.7-4.5c2.7-1.3,5.4-2.6,7.9-3.9c0.6-0.3,1.3-0.7,1.9-1c1.2-0.7,2.5-1.4,3.7-2c8.9-5.1,16.4-10.4,21.9-14.8&#10;&#9;&#9;&#9;c7-5.5,10.9-9.4,10.9-9.4c3-2.2,5.4-4.4,7.4-6.6c1.5-1.7,2.8-3.4,3.8-5c8.7-13.8,2.7-26.5,2.7-26.5&#10;&#9;&#9;&#9;C813.4,525,813,524.1,812.6,523.1z" style="opacity: 0.8387; fill: rgb(47, 47, 47);" transform="matrix(1.4177435636520388, 0, 0, 1.4046043157577512, -642.8414804178273, -357.07690769574765)"/><path class="st28" d="M812,522.4c-0.2-0.5-0.4-1-0.6-1.5c-0.2-0.5-0.4-1.1-0.5-1.6c-1-3.4-1.9-7.5-2.7-11.7&#10;&#9;&#9;&#9;c-2.8-15.7-3.8-34.5-3.8-34.5c1.2-21.5-3.1-38.5-10.6-51.9c-0.5-0.8-0.9-1.7-1.4-2.5c-2.5-4-5.2-7.7-8.2-11.1&#10;&#9;&#9;&#9;c-4.8-5.4-10.1-10-15.8-13.9c-1.4-1-2.9-1.9-4.3-2.8c-7.2-4.5-14.9-7.9-22.3-10.5c-4.5-1.6-8.8-2.9-13-4c-0.7-0.2-1.4-0.3-2.1-0.5&#10;&#9;&#9;&#9;c-1.4-0.3-2.7-0.6-4.1-0.9c-6.6-1.4-12.6-2.2-17.3-2.7c-1.4-0.1-2.7-0.3-3.9-0.4c-1.4-0.1-2.6-0.2-3.6-0.2c-1,0.1-2.2,0.1-3.6,0.2&#10;&#9;&#9;&#9;c-25.1,2-107.7,15-103,101.2c0,0-2.1,39.7-8.7,52c0,0-9.8,20.7,13.9,38.2c0,0,33,33.1,78.9,41.8c0,0,0.1,0,0.1,0&#10;&#9;&#9;&#9;c1.2,0.2,2.3,0.4,3.5,0.6c0,0,0,0,0.1,0c1.2,0.2,2.3,0.4,3.5,0.5c0.1,0,0.2,0,0.3,0c1,0.1,2.1,0.2,3.1,0.3c0.2,0,0.4,0,0.6,0.1&#10;&#9;&#9;&#9;c1.1,0.1,2.3,0.2,3.4,0.3c0.1,0,0.3,0,0.4,0c1,0.1,2,0.1,3,0.1c0.3,0,0.6,0,0.9,0c1.1,0,2.3,0,3.4,0h0h0l0,0&#10;&#9;&#9;&#9;c3.6,0,7.1-0.1,10.6-0.4c6.9-0.6,13.6-1.8,20-3.5c1.6-0.4,3.2-0.9,4.7-1.3c1.6-0.5,3.1-1,4.6-1.5c1.5-0.5,3-1,4.5-1.6&#10;&#9;&#9;&#9;c3.7-1.4,7.3-2.9,10.7-4.5c2.7-1.3,5.4-2.6,7.9-3.9c0.6-0.3,1.3-0.7,1.9-1c1.2-0.7,2.5-1.4,3.7-2c8.9-5.1,16.4-10.4,21.9-14.8&#10;&#9;&#9;&#9;c7-5.5,10.9-9.4,10.9-9.4c3-2.2,5.4-4.4,7.4-6.6c1.5-1.7,2.8-3.4,3.8-5c8.7-13.8,2.7-26.5,2.7-26.5&#10;&#9;&#9;&#9;C812.7,524.3,812.3,523.4,812,522.4z" style="opacity: 0.871; fill: rgb(39, 39, 39);" transform="matrix(1.4177435636520388, 0, 0, 1.4046043157577512, -642.8414804178273, -357.07690769574765)"/><path class="st29" d="M811.3,521.8c-0.2-0.5-0.4-1-0.6-1.5c-0.2-0.5-0.4-1.1-0.5-1.6c-1-3.4-1.9-7.5-2.7-11.7&#10;&#9;&#9;&#9;c-2.8-15.7-3.8-34.5-3.8-34.5c1.2-21.5-3.1-38.5-10.6-51.9c-0.5-0.8-0.9-1.7-1.4-2.5c-2.5-4-5.2-7.7-8.2-11.1&#10;&#9;&#9;&#9;c-4.8-5.4-10.1-10-15.8-13.9c-1.4-1-2.9-1.9-4.3-2.8c-7.2-4.5-14.9-7.9-22.3-10.5c-4.5-1.6-8.8-2.9-13-4c-0.7-0.2-1.4-0.3-2.1-0.5&#10;&#9;&#9;&#9;c-1.4-0.3-2.7-0.6-4.1-0.9c-6.6-1.4-12.6-2.2-17.3-2.7c-1.4-0.1-2.7-0.3-3.9-0.4c-1.4-0.1-2.6-0.2-3.6-0.2c-1,0.1-2.2,0.1-3.6,0.2&#10;&#9;&#9;&#9;c-25.1,2-107.7,15-103,101.2c0,0-2.1,39.7-8.7,52c0,0-9.8,20.7,13.9,38.2c0,0,33,33.1,78.9,41.8c0,0,0.1,0,0.1,0&#10;&#9;&#9;&#9;c1.2,0.2,2.3,0.4,3.5,0.6c0,0,0,0,0.1,0c1.2,0.2,2.3,0.4,3.5,0.5c0.1,0,0.2,0,0.3,0c1,0.1,2.1,0.2,3.1,0.3c0.2,0,0.4,0,0.6,0.1&#10;&#9;&#9;&#9;c1.1,0.1,2.3,0.2,3.4,0.3c0.1,0,0.3,0,0.4,0c1,0.1,2,0.1,3,0.1c0.3,0,0.6,0,0.9,0c1.1,0,2.3,0,3.4,0h0h0l0,0&#10;&#9;&#9;&#9;c3.6,0,7.1-0.1,10.6-0.4c6.9-0.6,13.6-1.8,20-3.5c1.6-0.4,3.2-0.9,4.7-1.3c1.6-0.5,3.1-1,4.6-1.5c1.5-0.5,3-1,4.5-1.6&#10;&#9;&#9;&#9;c3.7-1.4,7.3-2.9,10.7-4.5c2.7-1.3,5.4-2.6,7.9-3.9c0.6-0.3,1.3-0.7,1.9-1c1.2-0.7,2.5-1.4,3.7-2c8.9-5.1,16.4-10.4,21.9-14.8&#10;&#9;&#9;&#9;c7-5.5,10.9-9.4,10.9-9.4c3-2.2,5.4-4.4,7.4-6.6c1.5-1.7,2.8-3.4,3.8-5c8.7-13.8,2.7-26.5,2.7-26.5&#10;&#9;&#9;&#9;C812.1,523.6,811.7,522.7,811.3,521.8z" style="opacity: 0.9032; fill: rgb(31, 31, 31);" transform="matrix(1.4177435636520388, 0, 0, 1.4046043157577512, -642.8414804178273, -357.07690769574765)"/><path class="st30" d="M810.7,521.1c-0.2-0.5-0.4-1-0.6-1.5c-0.2-0.5-0.4-1.1-0.5-1.6c-1-3.4-1.9-7.5-2.7-11.7&#10;&#9;&#9;&#9;c-2.8-15.7-3.8-34.5-3.8-34.5c1.2-21.5-3.1-38.5-10.6-51.9c-0.5-0.8-0.9-1.7-1.4-2.5c-2.5-4-5.2-7.7-8.2-11.1&#10;&#9;&#9;&#9;c-4.8-5.4-10.1-10-15.8-13.9c-1.4-1-2.9-1.9-4.3-2.8c-7.2-4.5-14.9-7.9-22.3-10.5c-4.5-1.6-8.8-2.9-13-4c-0.7-0.2-1.4-0.3-2.1-0.5&#10;&#9;&#9;&#9;c-1.4-0.3-2.7-0.6-4.1-0.9c-6.6-1.4-12.6-2.2-17.3-2.7c-1.4-0.1-2.7-0.3-3.9-0.4c-1.4-0.1-2.6-0.2-3.6-0.2c-1,0.1-2.2,0.1-3.6,0.2&#10;&#9;&#9;&#9;c-25.1,2-107.7,15-103,101.2c0,0-2.1,39.7-8.7,52c0,0-9.8,20.7,13.9,38.2c0,0,33,33.1,78.9,41.8c0,0,0.1,0,0.1,0&#10;&#9;&#9;&#9;c1.2,0.2,2.3,0.4,3.5,0.6c0,0,0,0,0.1,0c1.2,0.2,2.3,0.4,3.5,0.5c0.1,0,0.2,0,0.3,0c1,0.1,2.1,0.2,3.1,0.3c0.2,0,0.4,0,0.6,0.1&#10;&#9;&#9;&#9;c1.1,0.1,2.3,0.2,3.4,0.3c0.1,0,0.3,0,0.4,0c1,0.1,2,0.1,3,0.1c0.3,0,0.6,0,0.9,0c1.1,0,2.3,0,3.4,0h0h0l0,0&#10;&#9;&#9;&#9;c3.6,0,7.1-0.1,10.6-0.4c6.9-0.6,13.6-1.8,20-3.5c1.6-0.4,3.2-0.9,4.7-1.3c1.6-0.5,3.1-1,4.6-1.5c1.5-0.5,3-1,4.5-1.6&#10;&#9;&#9;&#9;c3.7-1.4,7.3-2.9,10.7-4.5c2.7-1.3,5.4-2.6,7.9-3.9c0.6-0.3,1.3-0.7,1.9-1c1.2-0.7,2.5-1.4,3.7-2c8.9-5.1,16.4-10.4,21.9-14.8&#10;&#9;&#9;&#9;c7-5.5,10.9-9.4,10.9-9.4c3-2.2,5.4-4.4,7.4-6.6c1.5-1.7,2.8-3.4,3.8-5c8.7-13.8,2.7-26.5,2.7-26.5&#10;&#9;&#9;&#9;C811.5,522.9,811.1,522.1,810.7,521.1z" style="opacity: 0.9355; fill: rgb(23, 23, 23);" transform="matrix(1.4177435636520388, 0, 0, 1.4046043157577512, -642.8414804178273, -357.07690769574765)"/><path class="st31" d="M810.1,520.4c-0.2-0.5-0.4-1-0.6-1.5c-0.2-0.5-0.4-1.1-0.5-1.6c-1-3.4-1.9-7.5-2.7-11.7&#10;&#9;&#9;&#9;c-2.8-15.7-3.8-34.5-3.8-34.5c1.2-21.5-3.1-38.5-10.6-51.9c-0.5-0.8-0.9-1.7-1.4-2.5c-2.5-4-5.2-7.7-8.2-11.1&#10;&#9;&#9;&#9;c-4.8-5.4-10.1-10-15.8-13.9c-1.4-1-2.9-1.9-4.3-2.8c-7.2-4.5-14.9-7.9-22.3-10.5c-4.5-1.6-8.8-2.9-13-4c-0.7-0.2-1.4-0.3-2.1-0.5&#10;&#9;&#9;&#9;c-1.4-0.3-2.7-0.6-4.1-0.9c-6.6-1.4-12.6-2.2-17.3-2.7c-1.4-0.1-2.7-0.3-3.9-0.4c-1.4-0.1-2.6-0.2-3.6-0.2c-1,0.1-2.2,0.1-3.6,0.2&#10;&#9;&#9;&#9;c-25.1,2-107.7,15-103,101.2c0,0-2.1,39.7-8.7,52c0,0-9.8,20.7,13.9,38.2c0,0,33,33.1,78.9,41.8c0,0,0.1,0,0.1,0&#10;&#9;&#9;&#9;c1.2,0.2,2.3,0.4,3.5,0.6c0,0,0,0,0.1,0c1.2,0.2,2.3,0.4,3.5,0.5c0.1,0,0.2,0,0.3,0c1,0.1,2.1,0.2,3.1,0.3c0.2,0,0.4,0,0.6,0.1&#10;&#9;&#9;&#9;c1.1,0.1,2.3,0.2,3.4,0.3c0.1,0,0.3,0,0.4,0c1,0.1,2,0.1,3,0.1c0.3,0,0.6,0,0.9,0c1.1,0,2.3,0,3.4,0h0h0l0,0&#10;&#9;&#9;&#9;c3.6,0,7.1-0.1,10.6-0.4c6.9-0.6,13.6-1.8,20-3.5c1.6-0.4,3.2-0.9,4.7-1.3s3.1-1,4.6-1.5c1.5-0.5,3-1,4.5-1.6&#10;&#9;&#9;&#9;c3.7-1.4,7.3-2.9,10.7-4.5c2.7-1.3,5.4-2.6,7.9-3.9c0.6-0.3,1.3-0.7,1.9-1c1.2-0.7,2.5-1.4,3.7-2c8.9-5.1,16.4-10.4,21.9-14.8&#10;&#9;&#9;&#9;c7-5.5,10.9-9.4,10.9-9.4c3-2.2,5.4-4.4,7.4-6.6c1.5-1.7,2.8-3.4,3.8-5c8.7-13.8,2.7-26.5,2.7-26.5&#10;&#9;&#9;&#9;C810.9,522.3,810.5,521.4,810.1,520.4z" style="opacity: 0.9677; fill: rgb(15, 15, 15);" transform="matrix(1.4177435636520388, 0, 0, 1.4046043157577512, -642.8414804178273, -357.07690769574765)"/><path class="st32" d="M809.5,519.7c-0.2-0.5-0.4-1-0.6-1.5c-0.2-0.5-0.4-1.1-0.5-1.6c-1-3.4-1.9-7.5-2.7-11.7&#10;&#9;&#9;&#9;c-2.8-15.7-3.8-34.5-3.8-34.5c1.2-21.5-3.1-38.5-10.6-51.9c-0.5-0.8-0.9-1.7-1.4-2.5c-2.5-4-5.2-7.7-8.2-11.1&#10;&#9;&#9;&#9;c-4.8-5.4-10.1-10-15.8-13.9c-1.4-1-2.9-1.9-4.3-2.8c-7.2-4.5-14.9-7.9-22.3-10.5c-4.5-1.6-8.8-2.9-13-4c-0.7-0.2-1.4-0.3-2.1-0.5&#10;&#9;&#9;&#9;c-1.4-0.3-2.7-0.6-4.1-0.9c-6.6-1.4-12.6-2.2-17.3-2.7c-1.4-0.1-2.7-0.3-3.9-0.4c-1.4-0.1-2.6-0.2-3.6-0.2c-1,0.1-2.2,0.1-3.6,0.2&#10;&#9;&#9;&#9;c-25.1,2-107.7,15-103,101.2c0,0-2.1,39.7-8.7,52c0,0-9.8,20.7,13.9,38.2c0,0,33,33.1,78.9,41.8c0,0,0.1,0,0.1,0&#10;&#9;&#9;&#9;c1.2,0.2,2.3,0.4,3.5,0.6c0,0,0,0,0.1,0c1.2,0.2,2.3,0.4,3.5,0.5c0.1,0,0.2,0,0.3,0c1,0.1,2.1,0.2,3.1,0.3c0.2,0,0.4,0,0.6,0.1&#10;&#9;&#9;&#9;c1.1,0.1,2.3,0.2,3.4,0.3c0.1,0,0.3,0,0.4,0c1,0.1,2,0.1,3,0.1c0.3,0,0.6,0,0.9,0c1.1,0,2.3,0,3.4,0h0h0l0,0&#10;&#9;&#9;&#9;c3.6,0,7.1-0.1,10.6-0.4c6.9-0.6,13.6-1.8,20-3.5c1.6-0.4,3.2-0.9,4.7-1.3c1.6-0.5,3.1-1,4.6-1.5c1.5-0.5,3-1,4.5-1.6&#10;&#9;&#9;&#9;c3.7-1.4,7.3-2.9,10.7-4.5c2.7-1.3,5.4-2.6,7.9-3.9c0.6-0.3,1.3-0.7,1.9-1c1.2-0.7,2.5-1.4,3.7-2c8.9-5.1,16.4-10.4,21.9-14.8&#10;&#9;&#9;&#9;c7-5.5,10.9-9.4,10.9-9.4c3-2.2,5.4-4.4,7.4-6.6c1.5-1.7,2.8-3.4,3.8-5c8.7-13.8,2.7-26.5,2.7-26.5&#10;&#9;&#9;&#9;C810.2,521.6,809.8,520.7,809.5,519.7z" style="fill: rgb(7, 7, 7); opacity: 0.45;" transform="matrix(1.4177435636520388, 0, 0, 1.4046043157577512, -642.8414804178273, -357.07690769574765)"/><path d="M 695.4000244140625 194.89999389648438 L 695.4000244140625 194.89999389648438 L 695.4000244140625 194.89999389648438 Z" class="st36" style="fill: rgb(22, 13, 16);" transform="matrix(0.9999999999999999, 0, 0, 0.9999999999999999, -5.684341886080802e-14, 0)"/><path d="M 695.4000244140625 194.89999389648438 L 695.4000244140625 194.89999389648438 L 695.4000244140625 194.89999389648438 Z" class="st36" style="fill: rgb(22, 13, 16);" transform="matrix(0.9999999999999999, 0, 0, 0.9999999999999999, -5.684341886080802e-14, 0)"/><path class="st53" d="M810.6,522.4c-6.6-12.3-8.7-52-8.7-52c4.7-86.2-77.9-99.2-103-101.2c-1.4-0.1-2.6-0.2-3.6-0.2&#10;&#9;&#9;&#9;c-1,0.1-2.2,0.1-3.6,0.2c-25.1,2-107.7,15-103,101.2c0,0-2.1,39.7-8.7,52c0,0-9.8,20.7,13.9,38.2c0,0,44.2,44.3,101.3,43.9&#10;&#9;&#9;&#9;c57.1,0.4,101.3-43.9,101.3-43.9C820.4,543.1,810.6,522.4,810.6,522.4z" style="fill: rgb(253, 110, 0);" transform="matrix(1.4177435636520388, 0, 0, 1.4046043157577512, -642.8414804178273, -357.07690769574765)"/><path class="st33" d="M660.8,512.8c5.1,0,9.1-4.1,8.9-9c-2.5-47.6-15.7-83.8-31.7-83.8c-14.7,0-27.1,31-30.9,73.3&#10;&#9;&#9;&#9;&#9;c-0.9,10.5,0.2,19.6,11.2,19.6H660.8z" style="fill: rgb(255, 255, 255);" transform="matrix(1.4177435636520388, 0, 0, 1.4046043157577512, -642.8414804178273, -357.07690769574765)"/><path class="st36" d="M648.6,435.2c-15.7,0.8-34.5,35.5-24.9,77.6h37c5.1,0,9.1-4.1,8.9-9c-1.5-28.3-6.8-52.6-14.2-67.7&#10;&#9;&#9;&#9;&#9;C653.2,435.4,650.9,435.1,648.6,435.2z" style="fill: rgb(22, 13, 16);" transform="matrix(1.4177435636520388, 0, 0, 1.4046043157577512, -642.8414804178273, -357.07690769574765)"/><path class="st33" d="M657.3,473.6c0.4-8.3-3.6-15.4-9-15.7c-5.4-0.3-10.1,6.2-10.6,14.5c-0.4,8.3,3.6,15.4,9,15.7&#10;&#9;&#9;&#9;&#9;C652.1,488.5,656.9,481.9,657.3,473.6z" style="fill: rgb(255, 255, 255);" transform="matrix(1.4177435636520388, 0, 0, 1.4046043157577512, -642.8414804178273, -357.07690769574765)"/><path class="st51" d="M664.2,512.2c-0.3-11.6-2.9-24.2-2.9-24.2s-1,13.7-11.4,14.8c-10.4,1.1-15.8-17.8-15.8-17.8&#10;&#9;&#9;&#9;&#9;c-3.7,6.1-2.7,19.2-1.6,27.9h28.3C662,512.8,663.1,512.6,664.2,512.2z" style="fill: rgb(170, 229, 225);" transform="matrix(1.4177435636520388, 0, 0, 1.4046043157577512, -642.8414804178273, -357.07690769574765)"/><path class="st33" d="M727.3,512.8c-5.1,0-9.1-4.1-8.9-9c2.5-47.6,15.7-83.8,31.7-83.8c14.7,0,27.1,31,30.9,73.3&#10;&#9;&#9;&#9;&#9;c0.9,10.5-0.2,19.6-11.2,19.6H727.3z" style="fill: rgb(255, 255, 255);" transform="matrix(1.4177435636520388, 0, 0, 1.4046043157577512, -642.8414804178273, -357.07690769574765)"/><path class="st36" d="M739.4,435.2c15.7,0.8,34.5,35.5,24.9,77.6h-37c-5.1,0-9.1-4.1-8.9-9c1.5-28.3,6.8-52.6,14.2-67.7&#10;&#9;&#9;&#9;&#9;C734.8,435.4,737.1,435.1,739.4,435.2z" style="fill: rgb(22, 13, 16);" transform="matrix(1.4177435636520388, 0, 0, 1.4046043157577512, -642.8414804178273, -357.07690769574765)"/><path class="st33" d="M730.7,473.6c-0.4-8.3,3.6-15.4,9-15.7c5.4-0.3,10.1,6.2,10.6,14.5c0.4,8.3-3.6,15.4-9,15.7&#10;&#9;&#9;&#9;&#9;C735.9,488.5,731.2,481.9,730.7,473.6z" style="fill: rgb(255, 255, 255);" transform="matrix(1.4177435636520388, 0, 0, 1.4046043157577512, -642.8414804178273, -357.07690769574765)"/><path class="st51" d="M723.9,512.2c0.3-11.6,2.9-24.2,2.9-24.2s1,13.7,11.4,14.8c10.4,1.1,15.8-17.8,15.8-17.8&#10;&#9;&#9;&#9;&#9;c3.7,6.1,2.7,19.2,1.6,27.9h-28.3C726.1,512.8,724.9,512.6,723.9,512.2z" style="fill: rgb(170, 229, 225);" transform="matrix(1.4177435636520388, 0, 0, 1.4046043157577512, -642.8414804178273, -357.07690769574765)"/><path class="st57" d="M787,530.1l-89.4,18.9l-89.4-18.9c0,0,23.8,52.7,88.5,52.9v0c0.3,0,1.4,0,1.6,0v0&#10;&#9;&#9;&#9;C763.2,582.8,787,530.1,787,530.1z" style="fill: rgb(193, 83, 8);" transform="matrix(1.4177435636520388, 0, 0, 1.4046043157577512, -642.8414804178273, -357.07690769574765)"/><path class="st35" d="M752.6,537.4l-55,11.6l-61-12.9c-3.7,4.2-7.7,10.2-10.5,18.3c13.9,13.9,36.6,28.5,70.7,28.6v0&#10;&#9;&#9;&#9;c0.3,0,1.4,0,1.6,0v0c29.9-0.1,51.1-11.4,65.2-23.5C761,549.6,756.8,542.4,752.6,537.4z" style="fill: rgb(242, 53, 26);" transform="matrix(1.4177435636520388, 0, 0, 1.4046043157577512, -642.8414804178273, -357.07690769574765)"/><path d="M 659.2000122070312 540.9000244140625 L 650.2000122070312 539 L 653.0999755859375 551.5999755859375 Z" class="st33" style="fill: rgb(255, 255, 255);" transform="matrix(1.4177435636520388, 0, 0, 1.4046043157577512, -642.8414804178273, -357.07690769574765)"/><path d="M 638.7000122070312 536.5999755859375 L 627.2999877929688 534.2000122070312 L 630.9000244140625 550.0999755859375 Z" class="st33" style="fill: rgb(255, 255, 255);" transform="matrix(1.4177435636520388, 0, 0, 1.4046043157577512, -642.8414804178273, -357.07690769574765)"/><path d="M 738.7999877929688 540.2999877929688 L 730.7999877929688 542.0999755859375 L 736.2000122070312 551.5999755859375 Z" class="st33" style="fill: rgb(255, 255, 255);" transform="matrix(1.4177435636520388, 0, 0, 1.4046043157577512, -642.8414804178273, -357.07690769574765)"/><path d="M 761.7000122070312 535.5 L 751.2999877929688 537.7000122070312 L 758.4000244140625 550.0999755859375 Z" class="st33" style="fill: rgb(255, 255, 255);" transform="matrix(1.4177435636520388, 0, 0, 1.4046043157577512, -642.8414804178273, -357.07690769574765)"/><path class="st57" d="M680.6,528.8c-2.9-1.2-2.1-2-1.6-3.3s0.6-2.5,3.5-1.4c2.9,1.2,7.4,5.7,7.4,5.7S683.5,530,680.6,528.8z" style="fill: rgb(193, 83, 8);" transform="matrix(1.4177435636520388, 0, 0, 1.4046043157577512, -642.8414804178273, -357.07690769574765)"/><path class="st57" d="M707.5,528.8c2.9-1.2,2.1-2,1.6-3.3s-0.6-2.5-3.5-1.4c-2.9,1.2-7.4,5.7-7.4,5.7S704.6,530,707.5,528.8z" style="fill: rgb(193, 83, 8);" transform="matrix(1.4177435636520388, 0, 0, 1.4046043157577512, -642.8414804178273, -357.07690769574765)"/><path class="st54" d="M787.3,463.5c0,0,1,36.3,7.2,60.1c4.7,18.2-32.9,74.8-128.5,77.2c9.3,2.3,19.1,3.7,29.4,3.6&#10;&#9;&#9;&#9;c57.1,0.4,101.3-43.9,101.3-43.9c23.7-17.4,13.9-38.2,13.9-38.2c-6.6-12.3-8.7-52-8.7-52c4.7-86.2-77.9-99.2-103-101.2&#10;&#9;&#9;&#9;C698.9,369.2,791.2,397.5,787.3,463.5z" style="opacity: 0.48; fill: rgb(193, 83, 8);" transform="matrix(1.4177435636520388, 0, 0, 1.4046043157577512, -642.8414804178273, -357.07690769574765)"/>
</svg>